<svg width="307" height="296" viewBox="0 0 307 296" fill="none" xmlns="http://www.w3.org/2000/svg">
<path d="M204.941 79.4641C206.712 78.9563 208.313 79.6035 208.98 79.9121C208.701 79.1156 208.472 78.2892 208.333 77.413C207.249 70.9811 210.432 65.0569 215.445 64.1808C216.878 63.9319 218.31 64.131 219.653 64.6886C219.554 64.3002 219.474 63.902 219.404 63.4938C218.32 57.0618 221.503 51.1377 226.517 50.2615C228.048 49.9927 229.57 50.2316 230.983 50.8689C230.864 50.4308 230.764 49.9827 230.694 49.5347C229.61 43.1027 232.793 37.1786 237.807 36.3024C240.343 35.8643 242.86 36.8003 244.879 38.6621C244.74 37.7461 244.7 36.5115 245.168 35.2271C246.451 31.6627 251.026 29.1636 255.274 30.0895C258.775 30.8562 261.551 33.8432 262.277 37.6366C266.027 34.2514 271.637 34.3012 275.029 37.4574C278.829 41.0019 278.391 47.1152 275.954 49.8931C275.626 50.2715 275.278 50.5602 274.979 50.7693C277.625 53.4476 278.62 57.3605 277.546 60.9449C276.432 64.6686 273.278 67.4465 269.419 68.1037C271.219 71.1902 271.07 75.0434 269.041 77.9606C267.061 80.8182 263.6 82.3017 260.148 81.774C260.248 82.1822 261.74 88.4548 257.353 93.0249C254.19 96.3205 250.081 96.5296 249.176 96.5495C249.345 97.4357 249.823 100.512 248.003 103.141C245.725 106.426 240.771 107.701 236.056 105.829C236.225 106.377 237.389 110.439 234.852 114.282C232.425 117.956 228.496 118.583 227.899 118.663C228.257 119.081 228.735 119.718 229.143 120.555C231.062 124.567 229.103 128.719 228.904 129.117C227.103 132.781 223.692 134.086 222.936 134.355C223.135 134.653 223.304 134.962 223.473 135.281C226.149 140.319 225.044 146.153 221.006 148.304C219.782 148.961 218.4 149.19 217.027 149.06C220.429 150.604 222.428 153.451 222.07 155.99C221.991 156.528 221.752 157.474 220.847 158.509C223.92 158.4 226.775 159.913 228.158 162.442C230.436 166.594 227.382 171.015 227.203 171.263C226.954 171.602 226.725 171.871 226.556 172.05C226.875 172.16 227.193 172.289 227.521 172.428C232.624 174.649 236.245 179.906 235.608 184.157C235.419 185.462 234.842 186.517 233.997 187.294C234.355 187.413 234.713 187.542 235.081 187.702C240.184 189.922 243.805 195.179 243.168 199.431C242.85 201.581 241.487 203.065 239.567 203.722C240.413 204.22 241.258 204.837 242.074 205.574C246.53 209.586 248.45 215.52 246.351 218.826C245.207 220.638 243.099 221.265 240.691 220.827C240.661 220.907 240.632 220.987 240.602 221.066C241.855 222.669 242.979 224.601 243.815 226.761C246.351 233.303 245.357 239.336 241.597 240.223C239.687 240.671 237.439 239.705 235.35 237.793C236.504 243.259 234.614 248.009 230.525 248.974C225.781 250.099 219.872 245.709 217.345 239.167C217.196 238.779 217.057 238.391 216.937 238.002C216.142 238.839 215.147 239.436 213.963 239.715C209.218 240.84 203.31 236.449 200.783 229.908C199.739 227.199 199.44 224.561 199.779 222.311C196.208 221.036 192.706 217.482 190.916 212.842C190.15 210.861 189.782 208.919 189.772 207.127C188.538 206.629 187.355 205.863 186.27 204.817C182.212 200.904 181.108 194.522 183.505 189.962C181.237 190.141 178.83 189.414 176.731 187.752C175.686 189.733 174.155 191.276 172.324 192.242C177.527 194.89 180.531 201.302 179.118 207.286C178.74 208.879 178.094 210.293 177.228 211.488C178.362 213.101 179.248 215.082 179.775 217.322C181.008 222.59 179.904 227.896 177.278 231.202C179.039 233.034 180.431 235.583 181.147 238.649C182.878 246.067 179.994 253.594 174.712 255.456C173.399 255.924 172.056 255.984 170.763 255.715C170.902 256.133 171.021 256.571 171.121 257.009C172.852 264.427 169.967 271.954 164.685 273.816C160.129 275.419 155.295 272.293 152.927 266.667C152.141 269.654 150.58 271.884 148.461 272.631C144.283 274.095 139.489 269.276 137.758 261.858C137.151 259.259 137.012 256.701 137.251 254.391C135.172 256.422 132.615 257.228 130.268 256.253C126.14 254.55 124.21 248.048 125.941 241.746C126.259 240.601 126.677 239.536 127.174 238.57C124.906 239.147 122.658 238.63 120.977 236.887C117.655 233.442 117.794 226.522 121.285 221.435C121.534 221.076 121.793 220.738 122.061 220.409C120.748 220.22 119.525 219.622 118.51 218.567C115.188 215.122 115.327 208.202 118.818 203.115C119.037 202.786 119.266 202.477 119.505 202.189C118.281 201.969 117.147 201.382 116.192 200.396C112.87 196.951 113.009 190.032 116.501 184.944C116.968 184.257 117.485 183.639 118.023 183.092C117.635 183.012 117.247 182.893 116.879 182.733C116.6 182.614 115.804 182.256 114.869 181.34C114.332 180.812 113.049 179.547 112.522 177.676C111.617 174.43 113.596 171.582 113.895 171.164C109.955 173.086 105.449 171.96 103.341 168.904C100.973 165.469 102.793 161.277 102.893 161.068C98.4665 162.94 93.8112 162.113 91.7123 159.445C89.4046 156.508 90.3396 151.52 90.4192 151.131C90.5187 150.643 90.6281 150.245 90.7176 149.966C89.4344 150.484 88.0518 150.643 86.689 150.365C82.2028 149.449 79.4972 144.162 80.6411 138.566C80.7207 138.208 80.8003 137.869 80.8997 137.531C79.6862 137.979 78.393 138.108 77.0999 137.849C72.6137 136.933 69.9081 131.646 71.052 126.051C71.2112 125.294 71.43 124.567 71.7085 123.88C70.5546 124.288 69.3112 124.418 68.0678 124.149C64.2879 123.372 61.8509 119.479 62.2487 115.178C59.7619 116.821 56.6485 117.01 54.3308 115.626C51.2372 113.774 49.9341 109.354 51.8241 105.491C48.4719 107.641 44.1747 107.561 41.0115 105.301C38.1268 103.24 36.6347 99.6759 37.142 96.1015C32.6658 97.1768 28.1498 95.2651 26.1305 91.621C23.773 87.3596 26.041 82.8692 26.22 82.5207C24.9468 82.013 20.7889 80.1511 18.7199 75.6408C17.5361 73.062 16.2132 67.805 19.0183 64.8777C19.9235 63.9319 21.0177 63.4838 21.8035 63.2648C21.5349 63.0557 21.1868 62.7669 20.8287 62.3886C17.6555 59.0034 16.4519 51.6953 20.5999 46.8763C23.594 43.3915 28.6372 42.0673 33.3422 43.5309C36.2468 40.305 40.7728 39.1002 44.7715 40.4842C49.1582 42.0075 52.0927 46.3585 51.8937 51.1576C56.4595 49.3754 61.4729 50.6498 64.1884 54.1247C67.2422 58.0276 65.9292 62.8466 65.78 63.3643C67.1925 62.7271 68.7144 62.4981 70.2463 62.757C75.2597 63.6332 78.4428 69.5573 77.3585 75.9892C77.2889 76.3975 77.2093 76.7858 77.1098 77.184C77.6271 77.0944 82.8693 76.268 86.2314 79.7926C89.514 83.2277 88.6784 88.3553 88.4198 89.9085C88.2507 90.9539 87.9921 91.8002 87.7732 92.4076C88.5889 92.0492 90.1009 91.5613 91.8118 91.9596C94.6567 92.6266 96.865 95.4842 97.2728 99.1382C97.1435 98.5906 96.6859 96.3205 97.989 94.0703C98.8246 92.6366 99.9784 91.8799 100.565 91.5513C98.5858 88.9128 98.5659 84.8904 100.754 81.6247C102.157 79.5338 104.176 78.1797 106.285 77.6819C105.927 77.4728 105.579 77.2438 105.25 76.9749C102.057 74.2767 101.978 69.1093 105.081 65.4253C107.071 63.0656 109.896 61.8908 112.502 62.07C111.875 61.4029 111.348 60.6462 110.95 59.78C108.792 55.0506 111.388 49.226 116.759 46.7668C119.823 45.3629 123.126 45.3629 125.801 46.4979C125.563 43.2621 127.632 39.8868 131.163 38.2738C135.53 36.2825 140.473 37.7262 142.224 41.5097C143.119 38.1543 146.571 35.6453 150.709 35.6453C155.524 35.6453 159.423 39.0405 159.423 43.2222C159.423 43.8694 159.323 44.4967 159.144 45.0941C160.676 43.9291 162.676 43.2222 164.874 43.2222C169.688 43.2222 173.588 46.6174 173.588 50.7992C173.588 52.3225 173.07 53.7363 172.175 54.9212C172.255 55.1502 172.334 55.3792 172.394 55.6181C173.13 55.4389 173.896 55.3394 174.702 55.3394C179.516 55.3394 183.415 58.7345 183.415 62.9163C183.415 65.2561 182.202 67.337 180.282 68.7309C184.927 68.8902 188.648 72.2058 188.648 76.2879C188.648 77.5325 188.299 78.7074 187.683 79.7429C188.101 79.5139 191.602 77.6918 195.432 79.3944C199.898 81.3757 200.554 86.2544 200.584 86.4934C200.544 83.0584 202.425 80.2108 204.981 79.484L204.941 79.4641Z" fill="white" stroke="black" stroke-width="2" stroke-linecap="round" stroke-linejoin="round"/>
<path d="M158.241 69.9258C159.196 69.9258 159.971 69.1492 159.971 68.1934C159.971 67.2375 159.196 66.4609 158.241 66.4609C157.286 66.4609 156.51 67.2375 156.51 68.1934C156.51 69.1492 157.286 69.9258 158.241 69.9258Z" fill="black"/>
<path d="M137.839 69.2188C137.839 70.1746 137.063 70.9512 136.108 70.9512C135.153 70.9512 134.377 70.1746 134.377 69.2188C134.377 68.2629 135.153 67.4863 136.108 67.4863C137.063 67.4863 137.839 68.2629 137.839 69.2188Z" fill="black"/>
<path d="M143.459 74.5752C144.503 76.7457 146.841 77.8409 148.9 77.2933C150.482 76.8751 151.715 75.531 152.133 73.8384" stroke="black" stroke-width="2" stroke-miterlimit="10" stroke-linecap="round"/>
</svg>
