<svg width="222" height="232" viewBox="0 0 222 232" fill="none" xmlns="http://www.w3.org/2000/svg">
<g clip-path="url(#clip0_238_72)">
<path d="M220.967 91.7125C222.869 87.7015 219.702 82.225 213.889 79.4867C211.862 78.5322 209.776 78.0405 207.845 77.973C209.863 76.1507 210.935 73.692 210.529 71.1852C209.805 66.8078 204.794 63.9828 199.329 64.8795C198.334 65.0434 197.388 65.323 196.519 65.6894C197.369 63.4814 197.311 61.1481 196.162 59.2198C193.883 55.4113 188.177 54.6207 183.426 57.4553C183.088 57.6578 182.769 57.8796 182.451 58.1013C182.509 56.7611 182.219 55.4402 181.524 54.2832C179.245 50.4747 173.539 49.6841 168.788 52.5187C168.489 52.7019 168.199 52.8851 167.919 53.0876C167.939 51.8342 167.649 50.6097 166.992 49.5105C164.714 45.702 159.007 44.9114 154.257 47.7461C153.61 48.1317 153.021 48.5656 152.48 49.0381C152.48 47.8521 152.2 46.6758 151.563 45.6249C149.641 42.4142 145.296 41.4307 141.482 43.1662C142.081 42.1635 142.419 41.0258 142.419 39.8205C142.419 35.8674 138.808 32.6567 134.299 32.5025C136.162 31.1526 137.34 29.1375 137.34 26.8717C137.34 22.8221 133.555 19.5343 128.882 19.5343C128.1 19.5343 127.356 19.6307 126.642 19.8043C126.584 19.5729 126.507 19.3511 126.429 19.1293C127.298 17.982 127.8 16.6128 127.8 15.1376C127.8 11.0881 124.016 7.80027 119.342 7.80027C117.208 7.80027 115.268 8.48483 113.781 9.61292C113.954 9.03442 114.051 8.42698 114.051 7.80027C114.051 3.75073 110.266 0.462891 105.593 0.462891C101.576 0.462891 98.2256 2.89261 97.3566 6.14189C95.6572 2.47802 90.8584 1.07996 86.6196 3.00831C83.1919 4.57028 81.1836 7.83884 81.4153 10.9724C78.818 9.87325 75.6123 9.87325 72.6384 11.2327C67.4244 13.6143 64.9043 19.2547 66.9996 23.8345C67.3858 24.6733 67.8975 25.4061 68.5058 26.0521C65.9761 25.8786 63.2339 27.0163 61.3028 29.3014C58.2903 32.8688 58.3675 37.8729 61.467 40.4858C61.7856 40.7462 62.1235 40.9679 62.4711 41.1704C60.4242 41.6525 58.4641 42.9638 57.1027 44.9885C54.9785 48.151 54.9978 52.0463 56.9192 54.6014C55.8957 55.1702 55.0267 55.9898 54.4184 57.0407C53.2598 59.0366 53.2984 61.4374 54.2929 63.5586C50.3052 63.7417 46.9933 66.3932 46.6071 69.9703C46.4719 71.1948 46.694 72.3808 47.1961 73.4606C46.5106 73.2582 45.796 73.1039 45.0429 73.0268C39.5393 72.4193 34.6825 75.5047 34.1997 79.9206C34.0646 81.1837 34.306 82.4178 34.8467 83.5556C34.5087 83.4881 34.1708 83.4399 33.8232 83.4013C28.3195 82.7939 23.4628 85.8792 22.98 90.2952C22.8352 91.645 23.1152 92.9563 23.7235 94.1519C23.3469 94.0747 22.9607 94.0072 22.5745 93.9687C17.0708 93.3612 12.2141 96.4466 11.7313 100.863C11.4899 103.099 12.4169 105.24 14.0969 106.898C13.1507 106.927 12.1755 107.062 11.2003 107.332C5.86076 108.788 2.47167 113.435 3.63999 117.716C4.30622 120.156 6.31457 121.949 8.90225 122.769C7.17391 123.636 5.48419 124.938 4.03586 126.654C-0.106359 131.562 -0.705002 137.848 2.69374 140.712C4.42209 142.168 6.84562 142.447 9.35606 141.734C6.81666 146.343 7.4153 151.896 11.1134 155.011C15.4101 158.626 22.2462 157.585 26.3884 152.677C26.6395 152.388 26.8615 152.08 27.0836 151.781C27.634 153.005 28.445 154.114 29.5168 155.011C33.8135 158.626 40.6496 157.585 44.7919 152.677C46.5009 150.653 47.4664 148.29 47.7271 145.957C51.5121 146.651 55.7992 145.128 58.7441 141.647C59.9993 140.162 60.849 138.494 61.3221 136.788C62.6353 136.961 63.9871 136.865 65.3002 136.45C66.5458 136.055 67.6465 135.399 68.5831 134.56C68.4093 137.251 69.1528 139.854 70.8135 141.57C71.7018 142.496 72.7639 143.045 73.8743 143.267C73.3529 143.797 72.8508 144.395 72.397 145.06C69.0079 149.987 68.8728 156.688 72.0977 160.024C73.0246 160.979 74.1254 161.548 75.313 161.76C75.0813 162.039 74.8592 162.338 74.6468 162.657C71.2577 167.583 71.1225 174.285 74.3474 177.621C75.3323 178.643 76.5199 179.221 77.7945 179.404C77.5338 179.722 77.2827 180.05 77.0413 180.397C73.6523 185.324 73.5171 192.025 76.742 195.361C78.3738 197.049 80.556 197.55 82.7574 196.991C82.2746 197.926 81.8691 198.958 81.5601 200.067C79.8801 206.17 81.7532 212.466 85.7603 214.115C88.039 215.06 90.5205 214.279 92.5385 212.312C92.3067 214.549 92.4419 217.026 93.0309 219.543C94.711 226.726 99.3649 231.393 103.42 229.975C105.477 229.252 106.993 227.092 107.756 224.2C110.054 229.648 114.746 232.675 119.168 231.123C124.296 229.32 127.096 222.031 125.416 214.847C125.319 214.423 125.203 213.999 125.068 213.594C126.323 213.854 127.627 213.796 128.901 213.343C134.028 211.54 136.828 204.251 135.148 197.068C134.453 194.098 133.101 191.63 131.392 189.856C133.941 186.655 135.013 181.516 133.816 176.415C133.304 174.246 132.445 172.327 131.344 170.765C132.184 169.608 132.812 168.239 133.179 166.696C134.55 160.902 131.634 154.692 126.584 152.128C128.361 151.193 129.847 149.698 130.861 147.779C132.899 149.39 135.235 150.093 137.437 149.92C135.11 154.336 136.181 160.516 140.121 164.305C141.173 165.318 142.322 166.06 143.52 166.542C143.529 168.278 143.887 170.158 144.63 172.077C146.368 176.57 149.767 180.012 153.233 181.246C152.905 183.425 153.195 185.98 154.208 188.603C156.661 194.937 162.396 199.189 167.002 198.1C168.151 197.83 169.117 197.251 169.889 196.441C170.005 196.817 170.14 197.193 170.285 197.569C172.737 203.904 178.473 208.156 183.078 207.066C187.047 206.131 188.881 201.532 187.761 196.239C189.789 198.09 191.971 199.025 193.825 198.591C197.475 197.733 198.44 191.89 195.978 185.556C195.167 183.463 194.076 181.593 192.859 180.041C192.888 179.964 192.917 179.886 192.946 179.809C195.283 180.233 197.33 179.626 198.44 177.871C200.478 174.67 198.614 168.924 194.288 165.038C193.497 164.325 192.676 163.727 191.855 163.245C193.719 162.608 195.042 161.172 195.351 159.089C195.969 154.972 192.454 149.881 187.501 147.731C187.143 147.577 186.796 147.452 186.448 147.336C187.269 146.584 187.829 145.562 188.012 144.299C188.63 140.182 185.116 135.091 180.162 132.941C179.844 132.806 179.535 132.68 179.226 132.574C179.969 131.832 180.471 130.868 180.645 129.682C181.176 126.143 178.656 121.891 174.794 119.404L174.871 117.022C177.565 117.244 180.172 116.598 182.2 115.181C183.407 117.196 185.28 118.941 187.674 120.079C193.477 122.817 200.13 120.927 202.534 115.855C203.133 114.592 203.413 113.252 203.403 111.912C203.732 112.105 204.06 112.278 204.407 112.442C210.21 115.181 216.863 113.291 219.267 108.219C221.334 103.851 219.567 98.5581 215.338 95.4149C217.916 95.0196 220.011 93.7565 220.976 91.7125H220.967Z" fill="white" stroke="black" stroke-width="2" stroke-miterlimit="10"/>
<path d="M112.942 33.6786C113.87 33.6786 114.622 32.9275 114.622 32.0009C114.622 31.0744 113.87 30.3232 112.942 30.3232C112.014 30.3232 111.262 31.0744 111.262 32.0009C111.262 32.9275 112.014 33.6786 112.942 33.6786Z" fill="black"/>
<path d="M93.1375 32.9941C93.1375 33.9197 92.3843 34.6717 91.4574 34.6717C90.5305 34.6717 89.7773 33.9197 89.7773 32.9941C89.7773 32.0685 90.5305 31.3164 91.4574 31.3164C92.3843 31.3164 93.1375 32.0685 93.1375 32.9941Z" fill="black"/>
<path d="M98.5938 38.1813C99.6076 40.2832 101.877 41.3438 103.875 40.8135C105.411 40.4085 106.608 39.1069 107.013 37.4678" stroke="black" stroke-width="2" stroke-miterlimit="10" stroke-linecap="round"/>
</g>
<defs>
<clipPath id="clip0_238_72">
<rect width="222" height="232" fill="white"/>
</clipPath>
</defs>
</svg>
