<?xml version="1.0" encoding="UTF-8"?>
<svg id="Layer_1" data-name="Layer 1" xmlns="http://www.w3.org/2000/svg" width="43.61mm" height="27.1mm" viewBox="0 0 123.61 76.82">
  <defs>
    <style>
      .cls-1 {
        fill: none;
      }

      .cls-2 {
        stroke-width: 2px;
      }

      .cls-2, .cls-3 {
        stroke: #000;
        stroke-linecap: round;
        stroke-linejoin: round;
      }

      .cls-3 {
        fill: #fff;
        stroke-width: .75px;
      }
    </style>
  </defs>
  <g>
    <rect class="cls-1" x="3.93" y="16.62" width="116.61" height="44.42"/>
    <path class="cls-2" d="M23.78,30.88c.66,0,1.21-.1,1.67-.29.46-.19.84-.41,1.16-.65.32-.24.6-.46.85-.65.25-.19.5-.29.76-.29.32,0,.48.24.48.72,0,.26-.03.56-.1.92-.06.36-.15.76-.26,1.21-.06.27-.22.57-.47.89s-.59.62-1.02.9c-.43.28-.96.51-1.6.7s-1.36.28-2.17.28-1.63-.12-2.45-.36c-.82-.24-1.54-.65-2.18-1.22-.64-.58-1.16-1.35-1.56-2.33-.4-.98-.6-2.2-.6-3.67,0-.53.04-1.14.11-1.84.07-.7.21-1.41.42-2.15s.5-1.46.88-2.17.86-1.35,1.45-1.91c.59-.56,1.32-1.01,2.17-1.36.86-.34,1.88-.52,3.06-.52.94,0,1.76.11,2.46.34.7.22,1.27.53,1.73.92.46.39.79.85,1.01,1.38.22.53.32,1.09.32,1.68,0,1.02-.3,1.77-.9,2.24-.6.47-1.45.71-2.56.71-.35,0-.57-.03-.66-.08-.09-.06-.13-.17-.13-.35-.02-.54-.03-1.02-.05-1.42-.02-.4-.07-.73-.17-1-.1-.26-.24-.46-.44-.58-.2-.12-.48-.18-.83-.18-.51,0-.95.11-1.31.32-.36.22-.66.5-.91.84-.25.34-.45.73-.6,1.16-.15.43-.27.87-.36,1.32s-.14.88-.17,1.3c-.02.42-.04.78-.04,1.08,0,1.47.24,2.52.73,3.14.49.62,1.24.94,2.27.94Z"/>
    <path class="cls-2" d="M33.89,34.38c-.9,0-1.54-.18-1.92-.53-.38-.35-.58-.86-.58-1.51,0-.32.02-.87.07-1.64.05-.78.11-1.66.19-2.65s.16-2.04.24-3.14c.08-1.1.16-2.14.24-3.12.08-.98.14-1.83.19-2.57.05-.74.07-1.24.07-1.51,0-.24.13-.36.38-.36h1.32c.9,0,1.52.17,1.86.52.34.34.52.85.52,1.52,0,.08,0,.15-.01.22,0,.06-.01.14-.01.22l-.79,11.21h4.32c.1,0,.18.03.26.08.08.06.12.14.12.25l-.1,1.42c-.03.48-.16.87-.4,1.16-.23.3-.71.44-1.43.44h-4.56Z"/>
    <path class="cls-2" d="M44.64,34.38c-.9,0-1.54-.18-1.92-.53-.38-.35-.58-.86-.58-1.51,0-.32.02-.87.07-1.64.05-.78.11-1.66.19-2.65s.16-2.04.24-3.14c.08-1.1.16-2.14.24-3.12.08-.98.14-1.83.19-2.57.05-.74.07-1.24.07-1.51,0-.24.13-.36.38-.36h1.32c.98,0,1.63.21,1.97.62.34.42.5,1.03.5,1.85,0,.08-.01.34-.04.77-.02.43-.06.98-.11,1.63s-.1,1.39-.16,2.2c-.06.81-.11,1.64-.17,2.48-.06.85-.11,1.68-.17,2.48s-.11,1.54-.16,2.2c-.05.66-.09,1.2-.12,1.64-.03.44-.06.71-.07.8-.02.13-.05.22-.1.28-.05.06-.14.08-.29.08h-1.32Z"/>
    <path class="cls-2" d="M64.9,21.59c-.13.38-.29.88-.49,1.5-.2.62-.42,1.29-.66,2.03-.24.74-.49,1.52-.74,2.34s-.52,1.63-.78,2.41c-.26.78-.52,1.53-.78,2.24-.26.71-.49,1.33-.7,1.86-.06.13-.2.23-.4.3s-.52.11-.95.11c-.27,0-.55-.02-.84-.05s-.56-.1-.8-.19-.46-.22-.65-.38c-.18-.16-.32-.36-.42-.6-.24-.82-.47-1.72-.68-2.72s-.43-2.02-.64-3.06c-.21-1.04-.41-2.06-.61-3.06s-.4-1.91-.61-2.72c0,.22,0,.61-.02,1.15-.02.54-.03,1.18-.05,1.9-.02.72-.04,1.5-.06,2.33-.02.83-.04,1.64-.06,2.44-.02.79-.03,1.53-.05,2.21-.02.68-.02,1.24-.02,1.67,0,.48-.03.78-.08.91-.06.13-.16.19-.3.19h-1.32c-.91,0-1.56-.18-1.93-.54-.38-.36-.56-.89-.56-1.6,0-.19.01-.52.04-.97s.06-1,.11-1.62c.05-.62.1-1.31.16-2.05.06-.74.12-1.5.18-2.27.08-1.04.15-1.91.2-2.6.06-.7.1-1.28.13-1.74.03-.46.06-.84.08-1.13.02-.29.04-.54.05-.77,0-.22.02-.44.02-.64,0-.2.01-.45.01-.76,0-.13.05-.22.14-.28.1-.06.18-.08.26-.08h3.36c.62,0,1.14.1,1.54.3.4.2.73.51.98.92.26.42.46.96.62,1.62.16.66.31,1.45.44,2.36s.29,1.96.46,3.16c.17,1.19.39,2.53.66,4.02.26-.99.47-1.82.65-2.47.18-.66.32-1.2.44-1.64.12-.44.22-.8.3-1.09s.15-.56.22-.8c.06-.25.14-.52.22-.8.08-.29.18-.65.29-1.08.11-.43.25-.97.42-1.62.17-.65.38-1.47.64-2.46.03-.1.09-.19.17-.28s.22-.13.43-.13h3.74c.51,0,.92.05,1.24.16.31.1.56.25.73.44.18.19.3.43.36.71.06.28.1.6.1.97s-.02.96-.06,1.79c-.04.82-.1,1.75-.17,2.78s-.14,2.1-.22,3.2c-.07,1.1-.14,2.13-.22,3.07-.07.94-.13,1.74-.18,2.4-.05.66-.08,1.04-.1,1.15-.02.13-.05.22-.1.28s-.14.08-.29.08h-1.32c-.91,0-1.56-.18-1.93-.54-.38-.36-.56-.83-.56-1.4,0-.18.02-.5.06-.96.04-.46.09-1.01.16-1.63.06-.62.14-1.31.22-2.05.08-.74.15-1.48.22-2.22.06-.74.12-1.45.18-2.15s.1-1.31.13-1.84Z"/>
    <path class="cls-2" d="M79.03,17.34c.4,0,.73.08,1,.23.26.15.48.35.66.6s.32.53.43.85c.11.32.21.65.29.98.64,2.59,1.17,4.73,1.58,6.41.42,1.68.74,3.04.98,4.07s.41,1.8.5,2.29c.1.5.14.84.14,1.03,0,.22-.05.38-.16.46-.1.08-.27.12-.49.12h-1.22c-.69,0-1.24-.08-1.64-.25-.41-.17-.72-.41-.94-.73-.22-.32-.37-.71-.47-1.16-.1-.46-.18-.97-.24-1.55h-4.18l-.79,3.31c-.08.26-.26.38-.55.38h-1.27c-.26,0-.52-.03-.79-.08-.27-.06-.52-.15-.73-.28-.22-.13-.4-.29-.54-.49-.14-.2-.22-.44-.22-.73,0-.35.11-.93.34-1.73.22-.8.51-1.71.85-2.72.34-1.02.73-2.08,1.15-3.19.42-1.11.84-2.16,1.24-3.16.4-.99.76-1.86,1.09-2.62s.58-1.28.76-1.58c.13-.22.24-.36.35-.4.1-.04.3-.06.59-.06h2.28ZM76.15,27.21h2.76l-1.01-6.34-1.75,6.34Z"/>
    <path class="cls-2" d="M93.02,20.7l-.91,13.32c-.02.24-.1.36-.26.36h-1.32c-.9,0-1.54-.18-1.92-.53-.38-.35-.58-.86-.58-1.51,0-.24.01-.6.04-1.08.02-.48.06-1.04.11-1.69.05-.65.1-1.35.16-2.11s.12-1.53.18-2.3c.06-.78.12-1.55.18-2.32.06-.77.11-1.48.16-2.14h-3.84c-.18,0-.26-.11-.26-.34l.07-1.34c.02-.21.05-.41.11-.61.06-.2.15-.38.28-.54.13-.16.29-.29.49-.38.2-.1.44-.14.73-.14h10.73c.1,0,.18.02.26.07.08.05.12.14.12.26l-.1,1.42c-.03.48-.16.87-.4,1.16-.23.3-.71.44-1.43.44h-2.59Z"/>
    <path class="cls-2" d="M100.8,34.38c-.9,0-1.54-.18-1.92-.53-.38-.35-.58-.86-.58-1.51,0-.32.02-.87.07-1.64.05-.78.11-1.66.19-2.65s.16-2.04.24-3.14c.08-1.1.16-2.14.24-3.12.08-.98.14-1.83.19-2.57.05-.74.07-1.24.07-1.51,0-.24.13-.36.38-.36h8.45c.1,0,.18.02.26.07.08.05.12.14.12.26l-.1,1.42c-.03.48-.16.87-.4,1.16-.23.3-.71.44-1.43.44h-3.31l-.24,3.38h3.41c.1,0,.18.02.26.07.08.05.12.14.12.26l-.1,1.42c-.03.48-.16.87-.4,1.16-.23.3-.71.44-1.43.44h-2.09l-.26,3.58h5.28c.1,0,.18.03.26.08.08.06.12.14.12.25l-.1,1.42c-.03.48-.16.87-.4,1.16-.23.3-.71.44-1.43.44h-5.52Z"/>
    <path class="cls-2" d="M40.19,59.21c0,.13-.07.29-.22.49-.14.2-.35.4-.61.6-.26.2-.58.37-.94.52-.36.14-.76.22-1.19.22-.53,0-.98-.12-1.37-.35-.38-.23-.72-.55-1.02-.95-.3-.4-.56-.88-.78-1.43-.22-.55-.44-1.14-.65-1.76-1.02-.11-1.88-.38-2.57-.82-.69-.43-1.24-.98-1.64-1.66-.41-.67-.7-1.44-.88-2.29-.18-.86-.26-1.77-.26-2.75,0-1.25.14-2.47.42-3.66.28-1.19.74-2.26,1.39-3.19.65-.94,1.5-1.69,2.56-2.26,1.06-.57,2.36-.85,3.91-.85,1.14,0,2.1.17,2.9.49.8.33,1.45.8,1.96,1.42.5.62.87,1.38,1.1,2.28.23.9.35,1.93.35,3.08,0,.83-.07,1.75-.22,2.75-.14,1-.42,1.97-.82,2.9-.4.94-.95,1.78-1.64,2.54-.7.76-1.6,1.32-2.72,1.69.24.24.53.51.86.82.34.3.66.6.96.88.3.28.56.54.78.77.22.23.32.4.32.52ZM35.84,42.8c-.72,0-1.3.22-1.73.65-.43.43-.76.96-1,1.58-.23.62-.39,1.28-.47,1.96-.08.68-.12,1.27-.12,1.76,0,1.39.21,2.43.64,3.11.42.68,1.02,1.02,1.79,1.02.67,0,1.22-.24,1.64-.71s.76-1.04,1-1.7.4-1.36.48-2.09c.08-.73.12-1.36.12-1.88,0-1.15-.18-2.06-.53-2.71-.35-.66-.96-.98-1.82-.98Z"/>
    <path class="cls-2" d="M57.95,48.56c-.05.48-.12,1.01-.22,1.6-.1.58-.24,1.18-.44,1.78s-.47,1.18-.8,1.74c-.34.56-.77,1.06-1.3,1.5-.53.44-1.16.79-1.91,1.06s-1.63.4-2.65.4-1.93-.15-2.66-.44c-.74-.3-1.34-.7-1.8-1.22-.46-.52-.8-1.12-1.01-1.81-.21-.69-.31-1.42-.31-2.21,0-.35.02-.83.05-1.43.03-.6.08-1.25.13-1.96.06-.7.12-1.44.18-2.2.06-.76.12-1.48.18-2.17.06-.69.11-1.31.16-1.86.05-.55.08-.97.1-1.26.02-.3.06-.5.12-.59.06-.09.16-.13.29-.13h1.32c.98,0,1.63.21,1.97.62s.5,1.03.5,1.85c0,.05-.01.26-.04.64-.02.38-.06.84-.1,1.38s-.08,1.14-.12,1.78c-.04.64-.08,1.25-.12,1.82s-.07,1.08-.1,1.51c-.02.43-.04.72-.04.86,0,.27.01.58.04.94.02.35.09.69.19,1.01.1.32.27.59.5.8.23.22.56.32,1,.32.54,0,.99-.18,1.33-.55.34-.37.61-.81.79-1.32.18-.51.31-1.03.38-1.56.07-.53.12-.96.16-1.3.06-.82.13-1.66.2-2.52.07-.86.14-1.67.19-2.42s.1-1.41.13-1.97c.03-.56.05-.94.05-1.15,0-.32.02-.52.07-.61s.15-.13.31-.13h1.32c.54,0,.97.05,1.28.14.31.1.55.22.71.38.16.16.26.34.3.55s.06.42.06.65c0,.21-.01.6-.04,1.18-.02.58-.05,1.23-.08,1.97s-.07,1.5-.12,2.28c-.05.78-.1,1.47-.17,2.06Z"/>
    <path class="cls-2" d="M63.01,56.38c-.9,0-1.54-.18-1.92-.53-.38-.35-.58-.86-.58-1.51,0-.32.02-.87.07-1.64.05-.78.11-1.66.19-2.65s.16-2.04.24-3.14c.08-1.1.16-2.14.24-3.12.08-.98.14-1.83.19-2.57s.07-1.24.07-1.51c0-.24.13-.36.38-.36h8.45c.1,0,.18.02.26.07.08.05.12.14.12.26l-.1,1.42c-.03.48-.16.87-.4,1.16s-.71.44-1.43.44h-3.31l-.24,3.38h3.41c.1,0,.18.02.26.07.08.05.12.14.12.26l-.1,1.42c-.03.48-.16.87-.4,1.16-.23.3-.71.44-1.43.44h-2.09l-.26,3.58h5.28c.1,0,.18.03.26.08.08.06.12.14.12.25l-.1,1.42c-.03.48-.16.87-.4,1.16-.23.3-.71.44-1.43.44h-5.52Z"/>
    <path class="cls-2" d="M79.14,39.1c1.5,0,2.62.33,3.35.98.73.66,1.09,1.51,1.09,2.57,0,.9-.25,1.58-.74,2.05-.5.47-1.21.71-2.14.71-.29,0-.47-.03-.55-.08-.08-.06-.12-.17-.12-.35,0-.16-.01-.37-.04-.62s-.08-.5-.18-.74c-.1-.24-.25-.44-.46-.61-.21-.17-.5-.25-.86-.25-.51,0-.97.16-1.37.47-.4.31-.6.72-.6,1.21,0,.43.16.78.49,1.06.33.27.74.52,1.24.76.5.23,1.04.47,1.62.71.58.24,1.12.56,1.62.95.5.39.91.88,1.24,1.46.33.58.49,1.32.49,2.22,0,.7-.12,1.36-.35,1.98-.23.62-.58,1.15-1.03,1.61s-1.03.81-1.73,1.07-1.51.38-2.44.38c-.8,0-1.54-.09-2.22-.26s-1.27-.4-1.78-.66c-.5-.26-.9-.55-1.19-.86-.29-.31-.43-.6-.43-.85,0-1.06.06-1.82.18-2.28.12-.46.34-.7.66-.7.22,0,.46.1.71.29.25.19.53.41.85.65s.69.46,1.12.65c.42.19.92.29,1.48.29.22,0,.44-.02.66-.06.22-.04.41-.11.58-.2.17-.1.3-.22.41-.38.1-.16.16-.35.16-.58,0-.4-.15-.72-.46-.96-.3-.24-.69-.46-1.15-.66-.46-.2-.96-.41-1.5-.62-.54-.22-1.04-.51-1.5-.89s-.85-.86-1.15-1.45c-.3-.59-.46-1.35-.46-2.28,0-1.04.2-1.92.59-2.64.39-.72.9-1.31,1.51-1.76.62-.46,1.31-.78,2.09-.98.78-.2,1.55-.3,2.32-.3Z"/>
    <path class="cls-2" d="M93.3,42.7l-.91,13.32c-.02.24-.1.36-.26.36h-1.32c-.9,0-1.54-.18-1.92-.53-.38-.35-.58-.86-.58-1.51,0-.24.01-.6.04-1.08.02-.48.06-1.04.11-1.69.05-.65.1-1.35.16-2.11s.12-1.53.18-2.3c.06-.78.12-1.55.18-2.32.06-.77.11-1.48.16-2.14h-3.84c-.18,0-.26-.11-.26-.34l.07-1.34c.02-.21.05-.41.11-.61.06-.2.15-.38.28-.54.13-.16.29-.29.49-.38.2-.1.44-.14.73-.14h10.73c.1,0,.18.02.26.07.08.05.12.14.12.26l-.1,1.42c-.03.48-.16.87-.4,1.16-.23.3-.71.44-1.43.44h-2.59Z"/>
  </g>
  <g>
    <path class="cls-3" d="M22.93,30.04c.66,0,1.21-.1,1.67-.29.46-.19.84-.41,1.16-.65.32-.24.6-.46.85-.65.25-.19.5-.29.76-.29.32,0,.48.24.48.72,0,.26-.03.56-.1.92-.06.36-.15.76-.26,1.21-.06.27-.22.57-.47.89s-.59.62-1.02.9c-.43.28-.96.51-1.6.7s-1.36.28-2.17.28-1.63-.12-2.45-.36c-.82-.24-1.54-.65-2.18-1.22-.64-.58-1.16-1.35-1.56-2.33-.4-.98-.6-2.2-.6-3.67,0-.53.04-1.14.11-1.84.07-.7.21-1.41.42-2.15s.5-1.46.88-2.17.86-1.35,1.45-1.91c.59-.56,1.32-1.01,2.17-1.36.86-.34,1.88-.52,3.06-.52.94,0,1.76.11,2.46.34.7.22,1.27.53,1.73.92.46.39.79.85,1.01,1.38.22.53.32,1.09.32,1.68,0,1.02-.3,1.77-.9,2.24-.6.47-1.45.71-2.56.71-.35,0-.57-.03-.66-.08-.09-.06-.13-.17-.13-.35-.02-.54-.03-1.02-.05-1.42-.02-.4-.07-.73-.17-1-.1-.26-.24-.46-.44-.58-.2-.12-.48-.18-.83-.18-.51,0-.95.11-1.31.32-.36.22-.66.5-.91.84-.25.34-.45.73-.6,1.16-.15.43-.27.87-.36,1.32s-.14.88-.17,1.3c-.02.42-.04.78-.04,1.08,0,1.47.24,2.52.73,3.14.49.62,1.24.94,2.27.94Z"/>
    <path class="cls-3" d="M33.03,33.54c-.9,0-1.54-.18-1.92-.53-.38-.35-.58-.86-.58-1.51,0-.32.02-.87.07-1.64.05-.78.11-1.66.19-2.65s.16-2.04.24-3.14c.08-1.1.16-2.14.24-3.12.08-.98.14-1.83.19-2.57.05-.74.07-1.24.07-1.51,0-.24.13-.36.38-.36h1.32c.9,0,1.52.17,1.86.52.34.34.52.85.52,1.52,0,.08,0,.15-.01.22,0,.06-.01.14-.01.22l-.79,11.21h4.32c.1,0,.18.03.26.08.08.06.12.14.12.25l-.1,1.42c-.03.48-.16.87-.4,1.16-.23.3-.71.44-1.43.44h-4.56Z"/>
    <path class="cls-3" d="M43.78,33.54c-.9,0-1.54-.18-1.92-.53-.38-.35-.58-.86-.58-1.51,0-.32.02-.87.07-1.64.05-.78.11-1.66.19-2.65s.16-2.04.24-3.14c.08-1.1.16-2.14.24-3.12.08-.98.14-1.83.19-2.57.05-.74.07-1.24.07-1.51,0-.24.13-.36.38-.36h1.32c.98,0,1.63.21,1.97.62.34.42.5,1.03.5,1.85,0,.08-.01.34-.04.77-.02.43-.06.98-.11,1.63s-.1,1.39-.16,2.2c-.06.81-.11,1.64-.17,2.48-.06.85-.11,1.68-.17,2.48s-.11,1.54-.16,2.2c-.05.66-.09,1.2-.12,1.64-.03.44-.06.71-.07.8-.02.13-.05.22-.1.28-.05.06-.14.08-.29.08h-1.32Z"/>
    <path class="cls-3" d="M64.04,20.75c-.13.38-.29.88-.49,1.5-.2.62-.42,1.29-.66,2.03-.24.74-.49,1.52-.74,2.34s-.52,1.63-.78,2.41c-.26.78-.52,1.53-.78,2.24-.26.71-.49,1.33-.7,1.86-.06.13-.2.23-.4.3s-.52.11-.95.11c-.27,0-.55-.02-.84-.05s-.56-.1-.8-.19-.46-.22-.65-.38c-.18-.16-.32-.36-.42-.6-.24-.82-.47-1.72-.68-2.72s-.43-2.02-.64-3.06c-.21-1.04-.41-2.06-.61-3.06s-.4-1.91-.61-2.72c0,.22,0,.61-.02,1.15-.02.54-.03,1.18-.05,1.9-.02.72-.04,1.5-.06,2.33-.02.83-.04,1.64-.06,2.44-.02.79-.03,1.53-.05,2.21-.02.68-.02,1.24-.02,1.67,0,.48-.03.78-.08.91-.06.13-.16.19-.3.19h-1.32c-.91,0-1.56-.18-1.93-.54-.38-.36-.56-.89-.56-1.6,0-.19.01-.52.04-.97s.06-1,.11-1.62c.05-.62.1-1.31.16-2.05.06-.74.12-1.5.18-2.27.08-1.04.15-1.91.2-2.6.06-.7.1-1.28.13-1.74.03-.46.06-.84.08-1.13.02-.29.04-.54.05-.77,0-.22.02-.44.02-.64,0-.2.01-.45.01-.76,0-.13.05-.22.14-.28.1-.06.18-.08.26-.08h3.36c.62,0,1.14.1,1.54.3.4.2.73.51.98.92.26.42.46.96.62,1.62.16.66.31,1.45.44,2.36s.29,1.96.46,3.16c.17,1.19.39,2.53.66,4.02.26-.99.47-1.82.65-2.47.18-.66.32-1.2.44-1.64.12-.44.22-.8.3-1.09s.15-.56.22-.8c.06-.25.14-.52.22-.8.08-.29.18-.65.29-1.08.11-.43.25-.97.42-1.62.17-.65.38-1.47.64-2.46.03-.1.09-.19.17-.28s.22-.13.43-.13h3.74c.51,0,.92.05,1.24.16.31.1.56.25.73.44.18.19.3.43.36.71.06.28.1.6.1.97s-.02.96-.06,1.79c-.04.82-.1,1.75-.17,2.78s-.14,2.1-.22,3.2c-.07,1.1-.14,2.13-.22,3.07-.07.94-.13,1.74-.18,2.4-.05.66-.08,1.04-.1,1.15-.02.13-.05.22-.1.28s-.14.08-.29.08h-1.32c-.91,0-1.56-.18-1.93-.54-.38-.36-.56-.83-.56-1.4,0-.18.02-.5.06-.96.04-.46.09-1.01.16-1.63.06-.62.14-1.31.22-2.05.08-.74.15-1.48.22-2.22.06-.74.12-1.45.18-2.15s.1-1.31.13-1.84Z"/>
    <path class="cls-3" d="M78.18,16.5c.4,0,.73.08,1,.23.26.15.48.35.66.6s.32.53.43.85c.11.32.21.65.29.98.64,2.59,1.17,4.73,1.58,6.41.42,1.68.74,3.04.98,4.07s.41,1.8.5,2.29c.1.5.14.84.14,1.03,0,.22-.05.38-.16.46-.1.08-.27.12-.49.12h-1.22c-.69,0-1.24-.08-1.64-.25-.41-.17-.72-.41-.94-.73-.22-.32-.37-.71-.47-1.16-.1-.46-.18-.97-.24-1.55h-4.18l-.79,3.31c-.08.26-.26.38-.55.38h-1.27c-.26,0-.52-.03-.79-.08-.27-.06-.52-.15-.73-.28-.22-.13-.4-.29-.54-.49-.14-.2-.22-.44-.22-.73,0-.35.11-.93.34-1.73.22-.8.51-1.71.85-2.72.34-1.02.73-2.08,1.15-3.19.42-1.11.84-2.16,1.24-3.16.4-.99.76-1.86,1.09-2.62s.58-1.28.76-1.58c.13-.22.24-.36.35-.4.1-.04.3-.06.59-.06h2.28ZM75.3,26.36h2.76l-1.01-6.34-1.75,6.34Z"/>
    <path class="cls-3" d="M92.17,19.86l-.91,13.32c-.02.24-.1.36-.26.36h-1.32c-.9,0-1.54-.18-1.92-.53-.38-.35-.58-.86-.58-1.51,0-.24.01-.6.04-1.08.02-.48.06-1.04.11-1.69.05-.65.1-1.35.16-2.11s.12-1.53.18-2.3c.06-.78.12-1.55.18-2.32.06-.77.11-1.48.16-2.14h-3.84c-.18,0-.26-.11-.26-.34l.07-1.34c.02-.21.05-.41.11-.61.06-.2.15-.38.28-.54.13-.16.29-.29.49-.38.2-.1.44-.14.73-.14h10.73c.1,0,.18.02.26.07.08.05.12.14.12.26l-.1,1.42c-.03.48-.16.87-.4,1.16-.23.3-.71.44-1.43.44h-2.59Z"/>
    <path class="cls-3" d="M99.94,33.54c-.9,0-1.54-.18-1.92-.53-.38-.35-.58-.86-.58-1.51,0-.32.02-.87.07-1.64.05-.78.11-1.66.19-2.65s.16-2.04.24-3.14c.08-1.1.16-2.14.24-3.12.08-.98.14-1.83.19-2.57.05-.74.07-1.24.07-1.51,0-.24.13-.36.38-.36h8.45c.1,0,.18.02.26.07.08.05.12.14.12.26l-.1,1.42c-.03.48-.16.87-.4,1.16-.23.3-.71.44-1.43.44h-3.31l-.24,3.38h3.41c.1,0,.18.02.26.07.08.05.12.14.12.26l-.1,1.42c-.03.48-.16.87-.4,1.16-.23.3-.71.44-1.43.44h-2.09l-.26,3.58h5.28c.1,0,.18.03.26.08.08.06.12.14.12.25l-.1,1.42c-.03.48-.16.87-.4,1.16-.23.3-.71.44-1.43.44h-5.52Z"/>
    <path class="cls-3" d="M39.33,58.37c0,.13-.07.29-.22.49-.14.2-.35.4-.61.6-.26.2-.58.37-.94.52-.36.14-.76.22-1.19.22-.53,0-.98-.12-1.37-.35-.38-.23-.72-.55-1.02-.95-.3-.4-.56-.88-.78-1.43-.22-.55-.44-1.14-.65-1.76-1.02-.11-1.88-.38-2.57-.82-.69-.43-1.24-.98-1.64-1.66-.41-.67-.7-1.44-.88-2.29-.18-.86-.26-1.77-.26-2.75,0-1.25.14-2.47.42-3.66.28-1.19.74-2.26,1.39-3.19.65-.94,1.5-1.69,2.56-2.26,1.06-.57,2.36-.85,3.91-.85,1.14,0,2.1.17,2.9.49.8.33,1.45.8,1.96,1.42.5.62.87,1.38,1.1,2.28.23.9.35,1.93.35,3.08,0,.83-.07,1.75-.22,2.75-.14,1-.42,1.97-.82,2.9-.4.94-.95,1.78-1.64,2.54-.7.76-1.6,1.32-2.72,1.69.24.24.53.51.86.82.34.3.66.6.96.88.3.28.56.54.78.77.22.23.32.4.32.52ZM34.99,41.96c-.72,0-1.3.22-1.73.65-.43.43-.76.96-1,1.58-.23.62-.39,1.28-.47,1.96-.08.68-.12,1.27-.12,1.76,0,1.39.21,2.43.64,3.11.42.68,1.02,1.02,1.79,1.02.67,0,1.22-.24,1.64-.71.42-.47.76-1.04,1-1.7.24-.66.4-1.36.48-2.09.08-.73.12-1.36.12-1.88,0-1.15-.18-2.06-.53-2.71-.35-.66-.96-.98-1.82-.98Z"/>
    <path class="cls-3" d="M57.09,47.72c-.05.48-.12,1.01-.22,1.6-.1.58-.24,1.18-.44,1.78-.2.6-.47,1.18-.8,1.74-.34.56-.77,1.06-1.3,1.5-.53.44-1.16.79-1.91,1.06-.74.26-1.63.4-2.65.4s-1.93-.15-2.66-.44c-.74-.3-1.34-.7-1.8-1.22-.46-.52-.8-1.12-1.01-1.81-.21-.69-.31-1.42-.31-2.21,0-.35.02-.83.05-1.43.03-.6.08-1.25.13-1.96.06-.7.12-1.44.18-2.2.06-.76.12-1.48.18-2.17.06-.69.11-1.31.16-1.86.05-.55.08-.97.1-1.26.02-.3.06-.5.12-.59.06-.09.16-.13.29-.13h1.32c.98,0,1.63.21,1.97.62s.5,1.03.5,1.85c0,.05-.01.26-.04.64-.02.38-.06.84-.1,1.38-.04.54-.08,1.14-.12,1.78-.04.64-.08,1.25-.12,1.82s-.07,1.08-.1,1.51c-.02.43-.04.72-.04.86,0,.27.01.58.04.94.02.35.09.69.19,1.01.1.32.27.59.5.8.23.22.56.32,1,.32.54,0,.99-.18,1.33-.55.34-.37.61-.81.79-1.32s.31-1.03.38-1.56c.07-.53.12-.96.16-1.3.06-.82.13-1.66.2-2.52.07-.86.14-1.67.19-2.42.06-.75.1-1.41.13-1.97.03-.56.05-.94.05-1.15,0-.32.02-.52.07-.61s.15-.13.31-.13h1.32c.54,0,.97.05,1.28.14.31.1.55.22.71.38.16.16.26.34.3.55s.06.42.06.65c0,.21-.01.6-.04,1.18-.02.58-.05,1.23-.08,1.97s-.07,1.5-.12,2.28c-.05.78-.1,1.47-.17,2.06Z"/>
    <path class="cls-3" d="M62.16,55.54c-.9,0-1.54-.18-1.92-.53-.38-.35-.58-.86-.58-1.51,0-.32.02-.87.07-1.64.05-.78.11-1.66.19-2.65s.16-2.04.24-3.14c.08-1.1.16-2.14.24-3.12.08-.98.14-1.83.19-2.57.05-.74.07-1.24.07-1.51,0-.24.13-.36.38-.36h8.45c.1,0,.18.02.26.07.08.05.12.14.12.26l-.1,1.42c-.03.48-.16.87-.4,1.16-.23.3-.71.44-1.43.44h-3.31l-.24,3.38h3.41c.1,0,.18.02.26.07.08.05.12.14.12.26l-.1,1.42c-.03.48-.16.87-.4,1.16-.23.3-.71.44-1.43.44h-2.09l-.26,3.58h5.28c.1,0,.18.03.26.08.08.06.12.14.12.25l-.1,1.42c-.03.48-.16.87-.4,1.16-.23.3-.71.44-1.43.44h-5.52Z"/>
    <path class="cls-3" d="M78.28,38.26c1.5,0,2.62.33,3.35.98.73.66,1.09,1.51,1.09,2.57,0,.9-.25,1.58-.74,2.05-.5.47-1.21.71-2.14.71-.29,0-.47-.03-.55-.08-.08-.06-.12-.17-.12-.35,0-.16-.01-.37-.04-.62-.02-.26-.08-.5-.18-.74-.1-.24-.25-.44-.46-.61s-.5-.25-.86-.25c-.51,0-.97.16-1.37.47-.4.31-.6.72-.6,1.21,0,.43.16.78.49,1.06.33.27.74.52,1.24.76.5.23,1.04.47,1.62.71.58.24,1.12.56,1.62.95.5.39.91.88,1.24,1.46.33.58.49,1.32.49,2.22,0,.7-.12,1.36-.35,1.98-.23.62-.58,1.15-1.03,1.61s-1.03.81-1.73,1.07c-.7.26-1.51.38-2.44.38-.8,0-1.54-.09-2.22-.26-.68-.18-1.27-.4-1.78-.66-.5-.26-.9-.55-1.19-.86-.29-.31-.43-.6-.43-.85,0-1.06.06-1.82.18-2.28.12-.46.34-.7.66-.7.22,0,.46.1.71.29.25.19.53.41.85.65.32.24.69.46,1.12.65.42.19.92.29,1.48.29.22,0,.44-.02.66-.06.22-.04.41-.11.58-.2.17-.1.3-.22.41-.38.1-.16.16-.35.16-.58,0-.4-.15-.72-.46-.96s-.69-.46-1.15-.66c-.46-.2-.96-.41-1.5-.62-.54-.22-1.04-.51-1.5-.89-.46-.38-.85-.86-1.15-1.45-.3-.59-.46-1.35-.46-2.28,0-1.04.2-1.92.59-2.64.39-.72.9-1.31,1.51-1.76s1.31-.78,2.09-.98c.78-.2,1.55-.3,2.32-.3Z"/>
    <path class="cls-3" d="M92.45,41.86l-.91,13.32c-.02.24-.1.36-.26.36h-1.32c-.9,0-1.54-.18-1.92-.53-.38-.35-.58-.86-.58-1.51,0-.24.01-.6.04-1.08.02-.48.06-1.04.11-1.69.05-.65.1-1.35.16-2.11s.12-1.53.18-2.3c.06-.78.12-1.55.18-2.32.06-.77.11-1.48.16-2.14h-3.84c-.18,0-.26-.11-.26-.34l.07-1.34c.02-.21.05-.41.11-.61.06-.2.15-.38.28-.54.13-.16.29-.29.49-.38.2-.1.44-.14.73-.14h10.73c.1,0,.18.02.26.07.08.05.12.14.12.26l-.1,1.42c-.03.48-.16.87-.4,1.16-.23.3-.71.44-1.43.44h-2.59Z"/>
  </g>
</svg>