<?xml version="1.0" encoding="UTF-8"?>
<svg id="Layer_1" data-name="Layer 1" xmlns="http://www.w3.org/2000/svg" width="151.54mm" height="81.24mm" viewBox="0 0 429.57 230.3">
  <defs>
    <style>
      .cls-1 {
        fill: #c6e5ff;
      }

      .cls-2 {
        fill: #fff;
      }

      .cls-3 {
        fill: none;
        stroke: #000;
        stroke-miterlimit: 10;
      }
    </style>
  </defs>
  <path class="cls-2" d="M410.85,164c-.07-.24-.22-.4-.33-.51-.36-1.22-2.99-1.5-8.24-2.05-11.84-1.24-21.37,1.42-26.77,3.41-5.84-2.83-14.22-6.1-24.71-7.71-14.04-2.16-25.72-.42-33,1.27.2-2.79,1-17.73-9.71-27.81-3.09-2.91-6.39-4.7-9.16-5.83-.97-3.18-1.94-6.36-2.91-9.54-.81-4.67-4.21-20.85-18.77-32.39-13.08-10.37-27.5-10.92-34.38-11.18-5.56-.21-12.85-.49-20.69,2.63-19.72,7.86-26.12,30.56-27.2,34.64-12.85.99-22.84,3.6-29.58,5.83-7.58,2.51-11.55,4.68-14.27,8.72-3.05,4.53-3.26,9.51-3.13,12.36-2.95-.21-33.74-1.95-48.97,19.74-3.99,5.67-5.97,11.61-6.94,16.71-16.19,1.14-34.8,4.09-54.69,10.45-5.07,1.62-9.91,3.36-14.51,5.18,10.51,1.54,21.56,2.8,33.09,3.67,36.12,2.71,68.82.95,97.03-2.75,2.88,1.69,7.06,3.95,12.3,6.11,21.91,9.04,41.5,7.85,51.27,7.15,8.91-.64,21.71-2.49,36.4-7.99,19.46,5.77,35.93,7.12,47.22,7.28,0,0,42.03.59,90.54-22.76.94-.45,3.26-1.73,7.88-4.28,0,0,3.66-2.02,10.01-7.14.81-.65,2.54-2.08,2.21-3.2Z"/>
  <path class="cls-2" d="M222.19,74.29c7.84-3.12,15.13-2.85,20.69-2.63,6.87.26,21.3.81,34.38,11.18,14.56,11.54,17.96,27.72,18.77,32.39.97,3.18,1.94,6.36,2.91,9.54,2.77,1.13,6.07,2.92,9.16,5.83,10.7,10.08,9.91,25.02,9.71,27.81,7.28-1.69,18.96-3.43,33-1.27,10.49,1.61,18.87,4.88,24.71,7.71,5.4-1.99,14.93-4.65,26.77-3.41,5.25.55,7.88.83,8.24,2.05,1.4,4.72-27.96,20.93-56.12,28.06-32.62,8.26-51.06,1.15-106.18-4.8h0c-33.4-4.7-59.51-3.24-75.62-2.25-43.4,2.66-46.71,3.79-66.76,4.78-19.11.94-47.56,1.45-82.93-1.37,4.6-1.82,9.44-3.56,14.51-5.18,19.9-6.36,38.5-9.31,54.69-10.45.97-5.1,2.95-11.04,6.94-16.71,15.24-21.69,46.02-19.95,48.97-19.74-.14-2.84.08-7.83,3.13-12.36,2.72-4.04,6.68-6.21,14.27-8.72,6.74-2.23,16.73-4.84,29.58-5.83,1.08-4.09,7.48-26.78,27.2-34.64Z"/>
  <path class="cls-1" d="M222.19,74.29c.46.56-8.41,5.53-12.47,16.11-2.66,6.93-2.29,13.74-1.31,18.95-2.44-.24-5.15-.37-8.09-.31-1.87.04-3.63.15-5.29.31.79-4.29,2.47-10.45,6.41-16.83,7.91-12.81,20.21-18.88,20.75-18.23Z"/>
  <path class="cls-1" d="M152.82,121.83c.15,2.32.75,5.9,3.29,8.76,4.89,5.49,13.85,4.78,13.83,5.28-.01.32-3.69.63-21.92.41-.14-1.66-.18-4.59.99-7.95,1.08-3.12,2.74-5.29,3.82-6.5Z"/>
  <path class="cls-1" d="M96.42,160.78c-2.41,2.96-3.47,5.7-3.97,7.45-.51,1.77-.82,2.92-.35,4.06,1.01,2.4,4.79,2.96,7.86,3.28,10.39,1.08,19.47.02,23.89-.52,5.22-.64,9.82-1.23,13.64-1.74-8.95.67-16.39.3-21.77-.22-12.09-1.17-15.54-3.3-17.4-6.04-1.49-2.19-1.84-4.59-1.89-6.27Z"/>
  <path class="cls-1" d="M295.49,112.16c-.55,2-1.68,4.89-4.07,7.57-6.36,7.12-16.08,6.51-17.5,6.4,1.31,1.02,5.6,4.08,11.82,4.05,7.39-.03,12.17-4.41,13.2-5.4-1.15-4.2-2.29-8.41-3.44-12.61Z"/>
  <path class="cls-1" d="M22.9,187.91c6.29-1.22,15.63-2.69,27.03-3.13,13.56-.52,18.56.86,34.27,1.99,25.16,1.81,46.27,3.13,69.18-4.83,6.85-2.38,12.23-5.02,15.71-6.89,5.69.68,11.9,1.1,18.57,1.08,18.62-.06,34.46-3.52,46.55-7.37.46,1.15,1.69,3.77,4.46,5.32,4.27,2.38,8.95.4,10.84-.4,4.14-1.75,6.48-4.81,7.5-6.38.05,3.46-.56,7.37-3.26,9.93-1.65,1.56-3.45,2.02-3.36,2.31.21.66,9.55-1.19,17.96-3.96,7.02-2.31,17.05-6.47,28.39-14.41.2,5.44-.54,12.32-4.92,17.9-3.73,4.75-7.72,5.51-7.48,7.19.6,4.16,25.77,4.5,47.61,2.82,31.66-2.43,46.49-7.91,50.82-9.67,12.06-4.92,22.26-11.92,22.26-11.92,2.33-1.6,4.2-3.01,5.46-3.99.11.1.26.27.33.51.33,1.11-1.4,2.54-2.21,3.2-6.34,5.12-10.01,7.14-10.01,7.14-4.63,2.55-6.94,3.83-7.88,4.28-48.51,23.34-90.54,22.75-90.54,22.75-11.29-.16-27.75-1.51-47.22-7.28-14.69,5.5-27.49,7.35-36.4,7.99-9.77.7-29.36,1.89-51.27-7.15-5.24-2.16-9.42-4.42-12.3-6.11-28.21,3.7-60.91,5.46-97.03,2.75-11.54-.87-22.58-2.12-33.09-3.67Z"/>
  <path class="cls-3" d="M410.85,164c-.07-.24-.22-.4-.33-.51h0c-.36-1.22-2.99-1.5-8.24-2.05-11.84-1.24-21.37,1.42-26.77,3.41-5.84-2.83-14.22-6.1-24.71-7.71-14.04-2.16-25.72-.42-33,1.27.2-2.79,1-17.73-9.71-27.81-3.09-2.91-6.39-4.7-9.16-5.83-.97-3.18-1.94-6.36-2.91-9.54-.81-4.67-4.21-20.85-18.77-32.39-13.08-10.37-27.5-10.92-34.38-11.18-5.56-.21-12.85-.49-20.69,2.63-19.72,7.86-26.12,30.56-27.2,34.64-12.85.99-22.84,3.6-29.58,5.83-7.58,2.51-11.55,4.68-14.27,8.72-3.05,4.53-3.26,9.51-3.13,12.36-2.95-.21-33.74-1.95-48.97,19.74-3.99,5.67-5.97,11.61-6.94,16.71-16.19,1.14-34.8,4.09-54.69,10.45-5.07,1.62-9.91,3.36-14.51,5.18h0s0,0,0,0c10.51,1.54,21.56,2.8,33.09,3.67,36.12,2.71,68.82.95,97.03-2.75,2.88,1.69,7.06,3.95,12.3,6.11,21.9,9.04,41.5,7.85,51.27,7.15,8.91-.64,21.71-2.49,36.4-7.99,19.46,5.77,35.93,7.12,47.22,7.28,0,0,42.03.59,90.54-22.75.94-.45,3.26-1.73,7.88-4.28,0,0,3.66-2.02,10.01-7.14.81-.65,2.54-2.08,2.21-3.2Z"/>
</svg>