<?xml version="1.0" encoding="UTF-8"?>
<svg id="Layer_1" data-name="Layer 1" xmlns="http://www.w3.org/2000/svg" width="72.86mm" height="81.24mm" viewBox="0 0 206.53 230.3">
  <defs>
    <style>
      .cls-1 {
        stroke-linejoin: round;
      }

      .cls-1, .cls-2 {
        stroke: #000;
        stroke-linecap: round;
      }

      .cls-1, .cls-3 {
        fill: #fff;
      }

      .cls-2 {
        fill: none;
        stroke-miterlimit: 10;
      }
    </style>
  </defs>
  <path class="cls-3" d="M180.9,123.95c.7-1.1,2.81-4.74,2-9.18-.99-5.4-5.92-9.78-12.29-10.66.04-.45.43-6.23-4.2-9.96-3.62-2.91-7.74-2.51-9.79-2.06-.06-1.29-.53-5.16-4.02-7.4-3.54-2.27-7.3-1-7.75-.84.77-.93,1.3-2.05,1.49-3.28.63-4.05-2.56-7.91-7.15-8.79,2.12-1.09,3.65-2.97,4.01-5.29.64-4.15-2.71-8.12-7.49-8.86-.8-.12-1.58-.14-2.34-.08-.02-.25-.07-.49-.11-.73,1.07-1.04,1.8-2.36,2.04-3.87.64-4.15-2.71-8.12-7.49-8.86-2.18-.34-4.28.06-5.98.98.27-.57.46-1.17.56-1.82.64-4.15-2.71-8.12-7.49-8.86-4.11-.64-7.93,1.32-9.33,4.52-1.16-4.02-5.85-6.22-10.49-4.91-3.76,1.06-6.33,4.09-6.59,7.34-2.48-1.54-5.77-2.04-9.02-1.12-5.71,1.62-9.19,7-7.77,12.02.26.92.67,1.75,1.19,2.51-2.56-.58-5.55.15-7.89,2.19-3.65,3.18-4.36,8.32-1.6,11.49.28.32.6.6.92.86-4.98-.46-9.54,2.33-11.11,6.6-1.91,5.2,1.63,9.79,1.82,10.04-5.7-1.09-11.3.84-14.34,5-2.39,3.28-2.44,6.88-2.37,8.31-5.84.44-10.65,4.09-12.07,9.01-1.28,4.43.66,8.27,1.2,9.26-5.06,2.75-7.91,8.26-7.17,13.74.64,4.74,3.88,8.82,8.43,10.68-3.53,3.78-3.75,9.52-.7,13.33,2.72,3.4,7.54,4.64,11.78,2.94-2.41,2.97-2.86,6.99-1.17,10.06,2.11,3.84,7.22,5.61,11.8,3.69-1.88,4.65.01,9.74,3.86,11.71,2.99,1.53,6.83.99,9.68-1.35-.94,3.84.34,7.8,3.21,9.96,3.69,2.77,9.48,2.19,13.04-1.82,3.71,4.29,9.29,5.08,12.54,2.72,2.83-2.06,3.01-5.88,3.03-6.51,2.45,1.12,5.19,1,7.39-.11,2.23,2.71,6.19,3.62,9.6,2.04.02.63.2,4.39,2.94,6.42,3.16,2.33,8.59,1.54,12.2-2.69,3.46,3.95,9.09,4.53,12.68,1.79,2.8-2.13,4.05-6.04,3.14-9.83,2.77,2.31,6.51,2.83,9.42,1.32,3.74-1.94,5.59-6.97,3.76-11.55,4.45,1.89,9.42.14,11.48-3.65,1.65-3.03,1.21-7-1.13-9.92,4.13,1.68,8.82.45,11.46-2.91,2.97-3.76,2.75-9.42-.67-13.15,4.3-.67,7.82-3.7,8.93-7.69,1.35-4.87-1.12-10.38-6.05-12.8Z"/>
  <g>
    <path class="cls-1" d="M156.66,92.53c0-.24.1-5.19-4.03-7.84-3.54-2.27-7.3-1-7.75-.84.77-.93,1.3-2.05,1.49-3.28.63-4.05-2.56-7.91-7.15-8.79,2.12-1.09,3.65-2.97,4.01-5.29.64-4.15-2.71-8.12-7.49-8.86-.8-.12-1.58-.14-2.34-.08-.02-.25-.07-.49-.11-.73,1.07-1.04,1.8-2.36,2.04-3.87.64-4.15-2.71-8.12-7.49-8.86-2.18-.34-4.28.06-5.98.98.27-.57.46-1.17.56-1.82.64-4.15-2.71-8.12-7.49-8.86-4.11-.64-7.93,1.32-9.33,4.52-1.16-4.02-5.85-6.22-10.49-4.91-3.76,1.06-6.33,4.09-6.59,7.34-2.48-1.54-5.77-2.04-9.02-1.12-5.71,1.62-9.19,7-7.77,12.02.26.92.67,1.75,1.19,2.51-2.56-.58-5.55.15-7.89,2.19-3.65,3.18-4.36,8.32-1.6,11.49.28.32.6.6.92.86-4.98-.46-9.54,2.33-11.11,6.6-1.91,5.2,1.63,9.79,1.82,10.04-5.7-1.09-11.3.84-14.34,5-2.39,3.27-2.44,6.88-2.37,8.31-5.84.44-10.65,4.09-12.07,9.01-1.28,4.43.66,8.27,1.2,9.26-5.06,2.75-7.91,8.26-7.17,13.74.64,4.74,3.88,8.82,8.43,10.68-3.53,3.78-3.75,9.52-.7,13.33,2.72,3.4,7.54,4.64,11.78,2.94-2.41,2.97-2.86,6.99-1.17,10.06,2.11,3.84,7.22,5.61,11.8,3.69-1.88,4.65.01,9.74,3.86,11.71,2.99,1.53,6.83.99,9.68-1.35-.94,3.84.34,7.8,3.21,9.96,3.69,2.77,9.48,2.19,13.04-1.82,3.71,4.29,9.29,5.08,12.54,2.72,2.83-2.06,3.01-5.88,3.03-6.51,3.58,1.63,7.75.63,10.02-2.25,2.58-3.29,2.14-8.34-1.24-11.35.24-.63,1.88-5.19-.67-9.51-2.24-3.8-6.81-5.87-11.51-5.17.22-.59,2.16-6.06-1.17-11.17-3.81-5.86-10.88-5.61-11.18-5.6.09-.51.85-5.58-2.74-9.14-3.16-3.13-8.36-3.77-12.69-1.39.3-.92.62-2.35.4-4.06-.51-4.07-3.64-6.39-4.3-6.87"/>
    <path d="M113.27,69.38c.96,0,1.74-.78,1.74-1.74s-.78-1.74-1.74-1.74-1.74.78-1.74,1.74.78,1.74,1.74,1.74Z"/>
    <path d="M92.76,67.64c0,.96-.78,1.74-1.74,1.74s-1.74-.78-1.74-1.74.78-1.74,1.74-1.74,1.74.78,1.74,1.74Z"/>
    <path class="cls-2" d="M98.5,72.69c.88,2.25,3.14,3.53,5.25,3.14,1.62-.3,2.96-1.55,3.5-3.21"/>
    <path class="cls-1" d="M155.37,92.46c.28-.11,6.15-2.27,11.07,1.69,4.63,3.73,4.24,9.51,4.2,9.96,6.37.88,11.29,5.26,12.29,10.66.82,4.44-1.3,8.08-2,9.18,4.93,2.42,7.4,7.92,6.05,12.8-1.11,3.99-4.63,7.02-8.93,7.69,3.43,3.73,3.64,9.38.67,13.15-2.65,3.36-7.33,4.58-11.46,2.91,2.34,2.93,2.77,6.89,1.13,9.92-2.05,3.79-7.03,5.54-11.48,3.65,1.83,4.58-.02,9.61-3.76,11.55-2.91,1.51-6.65.98-9.42-1.32.91,3.79-.34,7.7-3.14,9.83-3.59,2.74-9.22,2.17-12.68-1.79-3.61,4.23-9.04,5.02-12.2,2.69-2.75-2.03-2.92-5.79-2.94-6.42-3.48,1.61-7.54.63-9.74-2.21-2.5-3.24-2.08-8.22,1.22-11.19-.23-.62-1.82-5.11.66-9.37,2.18-3.75,6.63-5.79,11.2-5.11-.21-.58-2.09-5.97,1.14-11.02,3.71-5.78,10.59-5.55,10.88-5.53-.08-.5-.83-5.5,2.67-9.01,3.08-3.09,8.13-3.72,12.35-1.38-.29-.91-.6-2.32-.39-4,.5-4.01,3.54-6.31,4.19-6.77"/>
    <path class="cls-1" d="M76.75,167.46c1.01-.6,8.05-4.63,16.01-1.71,4.83,1.78,7.55,5.22,8.59,6.71"/>
    <path class="cls-1" d="M137.86,167.46c-1.01-.6-8.05-4.63-16.01-1.71-4.83,1.78-7.55,5.22-8.59,6.71"/>
  </g>
</svg>