<?xml version="1.0" encoding="UTF-8"?>
<svg id="Layer_1" data-name="Layer 1" xmlns="http://www.w3.org/2000/svg" width="168.13mm" height="81.24mm" viewBox="0 0 476.59 230.3">
  <defs>
    <style>
      .cls-1 {
        fill: #c6e5ff;
      }

      .cls-2 {
        fill: none;
        stroke: #241f20;
        stroke-linecap: round;
        stroke-linejoin: round;
      }

      .cls-3 {
        fill: #fff;
      }
    </style>
  </defs>
  <path class="cls-3" d="M109.21,98.94c-3.8-1.32-9.53-2.93-16.65-3.47-5.08-.39-11.61-.88-19.01,1.58-5.56,1.85-8.81,4.46-15.28,9.6-4.58,3.64-13.46,10.98-16.85,18.46-.39.86-1.4,3.26-3.73,5.59-1.95,1.96-4.04,3.06-5.48,3.69,6.36,2.13,11.75,3.12,15.67,3.61,3.9.49,7.26.61,9.02.66,0,0,4.81.16,9.59-.09,13.67-.72,20.11-4.66,34.56-5.06,1.88-.05,6.05-.11,11.35.41,9.49.91,10.57,2.48,18.63,3.29,10.09,1.02,14.97,1.24,19.89-1.49,4-2.22,5.44-4.92,10.7-6.16,2.98-.7,3.7.02,8.49-.96,3.47-.71,5.74-1.65,9.35-2.42,4.38-.94,7.48-1.91,11.17-1.28,3.09.52,4.82,1.75,6.74,2.72,4.12,2.1,8.25,2.63,18.38,2.45,25.56-.46,31.02-4.39,39.78.25,4.22,2.23,3.29,3.32,9.73,7.11,8.8,5.18,16.84,6.84,19.96,7.38,9.57,1.66,17.82.59,21.39.1,4.76-.65,8.28-1.62,14.28-1.6,4.89,0,9.94.65,9.94.65,2.44.31,4.19.68,4.57.71,17.67,1.44,21.75-8.62,42.17-9.92,5.55-.35,12.47.6,26.29,2.5,14.86,2.05,21.74,4.08,30.91,1.3,6.51-1.97,11.25-5.49,14.21-8.11-1.7-.78-4.29-1.89-7.54-2.96-10.23-3.38-15.44-2.6-21.67-3.97-11-2.42-9.97-8.23-23.73-15.05-10.86-5.38-20.72-6.34-27.66-7.02-14.59-1.42-16.36,1.82-32.24.37-9.21-.84-16.43-1.5-24.44-5.67-8.05-4.19-8.15-7.37-19.95-17.75-6.64-5.84-14.72-12.95-26.08-18.38-14.2-6.78-26.77-7.71-29.48-7.87-5.98-.37-24.23-1.25-42.12,9.82-4.95,3.06-8.65,6.28-11.14,8.7-16.22-5.4-28.03-2.81-33.07-1.3-11.71,3.5-20.48,11.16-30.54,19.93-4.34,3.78-7.74,7.19-10.09,9.67Z"/>
  <path class="cls-1" d="M453.48,133.19c1.45,1.27,2.26,1.98,2.31,2.81.19,2.87-8.65,5.66-11.66,6.59-4.94,1.53-12.31,3.3-21.86,3.77,3.34.91,5.02,1.83,5.02,2.75,0,1.34-3.5,2.69-10.52,4.05-22.48,3.22-38.2,6.24-48.44,9.48-3.65,1.15-12.84,4.3-20.48,0-1.55-.87-2.67-1.85-3.39-2.54-2.37.93-6.04,2.23-10.66,3.22-7.29,1.56-11.1,1.09-19.55,1.52-14.87.75-15.03,2.78-23.07,2.22-4.57-.32-11.29-1.45-19.37-5.4-5.09.6-12.78.97-21.69-.95-13.66-2.94-17-8.4-28.92-10.12-6.47-.93-6.28.56-26.38,3.21-9.93,1.31-18.41,1.95-35.38,3.24-15.94,1.21-23.91,1.82-28.69,1.67-9-.28-22.02-1.68-37.75-7.03-4.74,1.17-8.68,1.84-11.32,2.23-21.85,3.23-38.13-.42-42.49-1.48-2.43-.59-4.36-1.16-5.5-1.51-1.54.75-4.65,1.99-8.6,1.7-1.91-.14-6.83-.52-8.16-3.34-1.72-3.65,2.61-9.66,7.24-12.62,2.61-1.67,5.66-2.59,10.72-2.8,8.86-.37,12.64,2.24,21.27,3.49,0,0,8.8,1.27,17.51-.29,16.4-2.94,15.79-13.62,29.44-16.91,14-3.37,20.77,6.39,39.69,2.84,5.45-1.02,11.12-2.88,11.12-2.88,7.32-2.39,12.97-5.27,16.61-7.33,10.07,6.23,33.63,18.72,63.12,15.11,7.73-.95,14.54-2.84,20.31-5.01,1.55,3.63,4.28,8.3,9.23,11.08,6.71,3.76,11.1.45,23.21,1.58,12.86,1.21,11.71,5.29,24.75,6.08,7.98.49,14.56-.67,20.68-.12.62.06,3.41.32,6.84-.26,5.52-.92,4.79-2.22,12.88-4.67,12.27-3.71,22.68-3.36,29.95-3.06,10.82.45,8.29,1.82,27.06,3.97,16.83,1.93,24.67,1.49,32.37-2.04,3.6-1.65,6.3-3.58,8.05-4.99,1.09.43,2.79,1.24,4.51,2.75Z"/>
  <path class="cls-1" d="M148.42,69.79c-13.95,4.67-19.79,11.29-22.47,16.78-3.48,7.13-3.98,17.17-7.15,17.32-1.34.06-2.16-1.7-6.58-3.7-1.25-.56-2.3-.93-2.97-1.14,1.66-3.44,3.99-7.32,7.27-11.15,10.98-12.84,25.44-16.79,31.89-18.11Z"/>
  <path class="cls-1" d="M295.56,81.87c2.45,4.18,4.4,9.13,2.48,12.79-2.88,5.48-12.95,5.21-12.83,6.11.1.79,8.08,1.63,16.72-.5,2.69-.66,4.43-1.36,7.6-1.44,3.72-.09,6.03.75,9.05,1.44,3.1.71,7.62,1.4,13.47,1.15-5.88-.38-10.51-1.62-13.63-2.68-3.03-1.03-5.53-1.88-8.45-3.85-2.83-1.9-3.84-3.36-8.52-7.75-2.45-2.3-4.52-4.1-5.88-5.26Z"/>
  <path class="cls-1" d="M205.96,56.18c-1.03.36-2.32.89-3.75,1.68-2.36,1.31-4.77,2.64-6.1,5.37-.26.53-.86,1.82-.89,3.53-.06,4.48,3.97,6.84,3.23,8.01-.75,1.2-5.5-.42-9.45-1.76-2.64-.9-4.75-1.77-6.09-2.35.14-.78.35-1.51.62-2.19,3.75-9.79,18.99-11.87,22.43-12.27Z"/>
  <path class="cls-2" d="M453.48,133.19c-1.71-1.5-3.42-2.32-4.51-2.75-1.7-.78-4.29-1.89-7.54-2.96-10.23-3.38-15.44-2.6-21.67-3.97-11-2.42-9.97-8.23-23.73-15.05-10.86-5.38-20.72-6.34-27.66-7.02-14.59-1.42-16.36,1.82-32.24.37-3.89-.36-7.43-.68-10.82-1.25-2.76-.53-5.09-1.2-6.89-1.82-3.03-1.03-5.53-1.88-8.45-3.85-2.83-1.9-3.84-3.36-8.52-7.75-2.45-2.3-4.52-4.1-5.88-5.26,0,0,0,0,0,0-1.13-1.07-2.39-2.22-3.82-3.49-6.64-5.84-14.72-12.95-26.08-18.38-14.2-6.78-26.77-7.71-29.48-7.87-4.79-.3-17.48-.91-31.54,4.56.47-.2.92-.37,1.32-.51-3.44.4-18.68,2.49-22.43,12.27-.26.68-.47,1.41-.62,2.19-16.22-5.4-28.03-2.81-33.07-1.3-.52.16-1.03.33-1.53.5.04-.01.08-.03.11-.05-6.45,1.32-20.91,5.27-31.89,18.11-3.17,3.71-5.44,7.45-7.1,10.81-.07.07-.15.16-.22.23-3.8-1.32-9.53-2.93-16.65-3.47-5.08-.39-11.61-.88-19.01,1.58-5.56,1.85-8.81,4.46-15.28,9.6-8.77,6.98-13.71,13.65-15.87,16.92h0s0,0,0,.01c-.43.64-.75,1.17-.97,1.52-.8,1.31-1.45,2.49-1.97,3.48-.13.19-.24.36-.39.57-.35.48-.78.99-1.36,1.54-4.44,4.22-8.32,2.57-13.53,5.94-4.8,3.09-8.84,9.21-7.24,12.62,1.33,2.82,6.25,3.2,8.16,3.34,3.95.3,7.06-.94,8.6-1.7,1.14.35,3.08.92,5.5,1.51,4.36,1.06,20.64,4.72,42.49,1.48,2.64-.39,6.57-1.06,11.32-2.23,15.74,5.35,28.76,6.75,37.75,7.03,4.78.15,12.75-.46,28.69-1.67,16.97-1.29,25.45-1.94,35.38-3.24,20.1-2.64,19.91-4.14,26.38-3.21,11.93,1.72,15.26,7.18,28.92,10.12,8.91,1.92,16.6,1.56,21.69.95,8.08,3.95,14.8,5.08,19.37,5.4,8.04.56,8.19-1.47,23.07-2.22,8.45-.42,12.25.04,19.55-1.52,4.62-.99,8.3-2.28,10.66-3.22.71.69,1.84,1.67,3.39,2.54,7.64,4.3,16.83,1.15,20.48,0,10.24-3.23,25.95-6.26,48.44-9.48,7.02-1.36,10.53-2.71,10.52-4.05,0-.92-1.68-1.84-5.02-2.75,9.55-.48,16.92-2.25,21.86-3.77,3.01-.93,11.85-3.72,11.66-6.59-.06-.83-.86-1.54-2.31-2.81Z"/>
</svg>