<?xml version="1.0" encoding="UTF-8"?>
<svg id="Layer_1" data-name="Layer 1" xmlns="http://www.w3.org/2000/svg" width="208.18mm" height="81.24mm" viewBox="0 0 590.13 230.3">
  <defs>
    <style>
      .cls-1, .cls-2 {
        stroke: #241f20;
        stroke-linecap: round;
        stroke-linejoin: round;
      }

      .cls-1, .cls-3 {
        fill: #fff;
      }

      .cls-4 {
        fill: #c6e5ff;
      }

      .cls-2 {
        fill: none;
      }
    </style>
  </defs>
  <path class="cls-1" d="M580.92,137.51c-.06-.2-.18-.33-.27-.42-6.28-4.2-25.37-.8-28.98,1.12-12.48-6.69-33.42-9.25-47.76-5.33,1.14-11.08-4.87-24.03-15.62-27.84-1.1-2.91-2.99-7.05-6.3-11.32-13.54-17.52-35.94-18.15-38.46-18.18-8.46-.11-14.88,1.99-18.74,3.28-10.73,3.6-18.23,9.29-22.53,13.11-12.64,2.07-32.31,2.33-37.97,15.47-16.68-2.03-25,2.1-40.94-.49-15.7-.73-24.03-8.89-34.91-19.38,0,0,0,0,0,0h0s0,0,0,0c-23.47-22.94-54.14-37.89-89.76-25.63.05-.02.11-.04.15-.06-3.69.2-21.48,3.45-23.05,14.46-11.68-3.84-23.4-4.56-34.61-.8.04-.01.08-.03.11-.05h0,0c-8.94.29-33.16,13.27-39.21,29.15-14.81-4.83-33.77-6.75-46.6,4.3-6.87,5.55-16.28,12.05-21.19,21.87-3.15,8.5-10.14,7.97-17.26,11.53-16.26,11.79-3.02,19.92,9.53,14.26,18.52,5.68,39.77,5.55,59.31.77,23.7,8.35,42.72,7.66,66.44,5.36,19.44-1.14,39.59-3.56,57.74-6.71,20.21,1.62,29.12,15.29,54.64,11.34,12.54,6.71,24.28,5.86,37.5,3.52,12.74-.8,23.91-.17,35.14-5.07,13.16,11.01,26.62-.35,42.18-1.94,26.4,9.02,46.19,6.7,70.74-1.4,39.56,10.64,66.39,7.62,114.01-12.8,1.92-1.43,13.66-6.12,16.64-12.1Z"/>
  <g>
    <path class="cls-4" d="M402.26,92.9c.07.04.14.08.21.12,1.1.47,2.17,1,3.23,1.56,3.64-6.92,9.44-10.25,9.1-10.66-.35-.42-6.66,2.57-12.53,8.98Z"/>
    <path class="cls-4" d="M320.69,134.85c-2,2.45-2.87,4.72-3.29,6.16-.42,1.46-.68,2.42-.29,3.36.83,1.98,3.97,2.45,6.51,2.71,8.6.89,16.11.01,19.77-.43,4.32-.53,8.13-1.02,11.29-1.44-7.41.55-13.56.25-18.02-.18-10.01-.97-12.86-2.73-14.4-5-1.24-1.82-1.52-3.8-1.57-5.19Z"/>
    <path class="cls-4" d="M502.44,123.32c-.46,1.66-1.39,4.04-3.37,6.26-5.27,5.89-13.3,5.39-14.49,5.29,1.08.84,4.63,3.38,9.78,3.35,6.12-.03,10.07-3.65,10.92-4.47-.95-3.48-1.9-6.96-2.84-10.44Z"/>
    <path class="cls-4" d="M259.84,157.3c5.2-1.01,12.94-2.23,22.37-2.59,11.22-.43,15.36.71,28.37,1.65,20.82,1.5,38.29,2.59,57.26-4,5.67-1.97,10.12-4.16,13.01-5.7,4.71.56,9.85.91,15.37.89,15.41-.05,28.52-2.92,38.53-6.1.38.95,1.4,3.12,3.7,4.4,3.54,1.97,7.4.33,8.97-.33,3.43-1.45,5.36-3.98,6.21-5.28.04,2.86-.46,6.1-2.7,8.21-1.37,1.3-2.79,1.35-2.78,1.91.03,1.33,7.75,2.87,15.94,2.88,12.83.01,22.58-3.73,22.79-3.07.22.69-10.86,3.56-10.62,5.75.33,3.07,22.74,3.61,39.4,2.33,26.2-2.02,38.47-6.54,42.06-8.01,9.98-4.07,18.42-9.87,18.42-9.87,1.93-1.32,3.48-2.49,4.52-3.3.09.09.22.22.27.42.28.92-1.16,2.1-1.83,2.64-5.25,4.24-8.28,5.91-8.28,5.91-3.83,2.11-5.75,3.17-6.53,3.54-40.15,19.32-74.93,18.83-74.93,18.83-9.34-.13-22.97-1.25-39.08-6.03-12.16,4.55-22.75,6.08-30.13,6.61-8.08.58-24.3,1.57-42.43-5.92-4.34-1.79-7.79-3.66-10.18-5.06-23.35,3.07-50.41,4.52-80.3,2.28-9.55-.72-18.69-1.76-27.39-3.04Z"/>
  </g>
  <g>
    <path class="cls-3" d="M102.09,104.59c-3.8-1.32-9.53-2.93-16.65-3.47-5.08-.39-11.61-.88-19.01,1.58-5.56,1.85-8.81,4.46-15.28,9.6-4.58,3.64-13.46,10.98-16.85,18.46-.39.86-1.4,3.26-3.73,5.59-1.95,1.96-4.04,3.06-5.48,3.69,6.36,2.13,11.75,3.12,15.67,3.61,3.9.49,7.26.61,9.02.66,0,0,4.81.16,9.59-.09,13.67-.72,20.11-4.66,34.56-5.06,1.88-.05,6.05-.11,11.35.41,9.49.91,10.57,2.48,18.63,3.29,10.09,1.02,14.97,1.24,19.89-1.49,4-2.22,5.44-4.92,10.7-6.16,2.98-.7,3.7.02,8.49-.96,3.47-.71,5.74-1.65,9.35-2.42,4.38-.94,7.48-1.91,11.17-1.28,3.09.52,4.82,1.75,6.74,2.72,4.12,2.1,8.25,2.63,18.38,2.45,25.56-.46,31.02-4.39,39.78.25,4.22,2.23,3.29,3.32,9.73,7.11,8.8,5.18,16.84,6.84,19.96,7.38,9.57,1.66,17.82.59,21.39.1,4.76-.65,8.28-1.62,14.28-1.6,4.89,0,9.94.65,9.94.65,2.44.31,4.19.68,4.57.71,17.67,1.44,21.75-8.62,42.17-9.92,5.55-.35,12.47.6,26.29,2.5,14.86,2.05,21.74,4.08,30.91,1.3,6.51-1.97,11.25-5.49,14.21-8.11-1.7-.78-4.29-1.89-7.54-2.96-10.23-3.38-15.44-2.6-21.67-3.97-11-2.42-9.97-8.23-23.73-15.05-10.86-5.38-20.72-6.34-27.66-7.02-14.59-1.42-16.36,1.82-32.24.37-9.21-.84-16.43-1.5-24.44-5.67-8.05-4.19-8.15-7.37-19.95-17.75-6.64-5.84-14.72-12.95-26.08-18.38-14.2-6.78-26.77-7.71-29.48-7.87-5.98-.37-24.23-1.25-42.12,9.82-4.95,3.06-8.65,6.28-11.14,8.7-16.22-5.4-28.03-2.81-33.07-1.3-11.71,3.5-20.48,11.16-30.54,19.93-4.34,3.78-7.74,7.19-10.09,9.67Z"/>
    <path class="cls-4" d="M415.16,152.02c6.02-.3,11.16-1.12,15.39-2.06-1.76-.81-3.5-1.63-5.24-2.49-4.3-.94-8.56-2.06-12.79-3.35-3.22-.18-6.87-.51-11.08-.99-18.77-2.15-16.23-3.52-27.06-3.97-7.27-.3-17.68-.65-29.95,3.06-8.09,2.45-7.36,3.75-12.88,4.67-3.43.57-6.22.31-6.84.26-6.11-.56-12.69.6-20.68.12-13.03-.79-11.89-4.87-24.75-6.08-12.12-1.14-16.51,2.17-23.21-1.58-4.95-2.77-7.68-7.45-9.23-11.08-5.77,2.17-12.58,4.06-20.31,5.01-29.48,3.61-53.05-8.88-63.12-15.11-3.64,2.06-9.29,4.93-16.61,7.33,0,0-5.68,1.86-11.12,2.88-18.92,3.55-25.69-6.21-39.69-2.84-13.65,3.28-13.04,13.97-29.44,16.91-8.71,1.56-17.51.29-17.51.29-8.63-1.25-12.41-3.86-21.27-3.49-5.05.21-8.11,1.13-10.72,2.8-4.62,2.95-8.95,8.97-7.24,12.62,1.33,2.82,6.25,3.2,8.16,3.34,3.95.3,7.06-.94,8.6-1.7,1.14.35,3.08.92,5.5,1.51,4.36,1.06,20.64,4.72,42.49,1.48,2.64-.39,6.57-1.06,11.32-2.23,15.74,5.35,28.76,6.75,37.75,7.03,4.78.15,12.75-.46,28.69-1.67,16.97-1.29,25.45-1.94,35.38-3.24,20.1-2.64,19.91-4.14,26.38-3.21,11.93,1.72,15.26,7.18,28.92,10.12,8.91,1.92,16.6,1.56,21.69.95,8.08,3.95,14.8,5.08,19.37,5.4,8.04.56,8.19-1.47,23.07-2.22,8.45-.42,12.25.04,19.55-1.52,4.62-.99,8.3-2.28,10.66-3.22.71.69,1.84,1.67,3.39,2.54,7.64,4.3,16.83,1.15,20.48,0,10.24-3.23,25.95-6.26,48.44-9.48,7.02-1.36,10.53-2.71,10.52-4.05,0-.92-1.68-1.84-5.02-2.75Z"/>
    <path class="cls-4" d="M141.3,75.44c-13.95,4.67-19.79,11.29-22.47,16.78-3.48,7.13-3.98,17.17-7.15,17.32-1.34.06-2.16-1.7-6.58-3.7-1.25-.56-2.3-.93-2.97-1.14,1.66-3.44,3.99-7.32,7.27-11.15,10.98-12.84,25.44-16.79,31.89-18.11Z"/>
    <path class="cls-4" d="M288.45,87.52c2.45,4.18,4.4,9.13,2.48,12.79-2.88,5.48-12.95,5.21-12.83,6.11.1.79,8.08,1.63,16.72-.5,2.69-.66,4.43-1.36,7.6-1.44,3.72-.09,6.03.75,9.05,1.44,3.1.71,7.62,1.4,13.47,1.15-5.88-.38-10.51-1.62-13.63-2.68-3.03-1.03-5.53-1.88-8.45-3.85-2.83-1.9-3.84-3.36-8.52-7.75-2.45-2.3-4.52-4.1-5.88-5.26Z"/>
    <path class="cls-4" d="M198.84,61.83c-1.03.36-2.32.89-3.75,1.68-2.36,1.31-4.77,2.64-6.1,5.37-.26.53-.86,1.82-.89,3.53-.06,4.48,3.97,6.84,3.23,8.01-.75,1.2-5.5-.42-9.45-1.76-2.64-.9-4.75-1.77-6.09-2.35.14-.78.35-1.51.62-2.19,3.75-9.79,18.99-11.87,22.43-12.27Z"/>
  </g>
  <path class="cls-4" d="M367.64,102.89c.13,1.92.62,4.89,2.72,7.25,4.04,4.55,11.46,3.96,11.44,4.37-.01.26-3.06.52-18.14.34-.12-1.37-.15-3.79.82-6.58.9-2.58,2.26-4.38,3.16-5.38Z"/>
  <path class="cls-2" d="M580.92,137.51c-.06-.2-.18-.33-.27-.42-6.28-4.2-25.37-.8-28.98,1.12-12.48-6.69-33.42-9.25-47.76-5.33,1.14-11.08-4.87-24.03-15.62-27.84-1.1-2.91-2.99-7.05-6.3-11.32-13.54-17.52-35.94-18.15-38.46-18.18-8.46-.11-14.88,1.99-18.74,3.28-10.73,3.6-18.23,9.29-22.53,13.11-12.64,2.07-32.31,2.33-37.97,15.47-16.68-2.03-25,2.1-40.94-.49-15.7-.73-24.03-8.89-34.91-19.38,0,0,0,0,0,0h0s0,0,0,0c-23.47-22.94-54.14-37.89-89.76-25.63.05-.02.11-.04.15-.06-3.69.2-21.48,3.45-23.05,14.46-11.68-3.84-23.4-4.56-34.61-.8.04-.01.08-.03.11-.05h0,0c-8.94.29-33.16,13.27-39.21,29.15-14.81-4.83-33.77-6.75-46.6,4.3-6.87,5.55-16.28,12.05-21.19,21.87-3.15,8.5-10.14,7.97-17.26,11.53-16.26,11.79-3.02,19.92,9.53,14.26,18.52,5.68,39.77,5.55,59.31.77,23.7,8.35,42.72,7.66,66.44,5.36,19.44-1.14,39.59-3.56,57.74-6.71,20.21,1.62,29.12,15.29,54.64,11.34,12.54,6.71,24.28,5.86,37.5,3.52,12.74-.8,23.91-.17,35.14-5.07,13.16,11.01,26.62-.35,42.18-1.94,26.4,9.02,46.19,6.7,70.74-1.4,39.56,10.64,66.39,7.62,114.01-12.8,1.92-1.43,13.66-6.12,16.64-12.1Z"/>
</svg>