<svg width="39" height="37" viewBox="0 0 39 37" fill="none" xmlns="http://www.w3.org/2000/svg">
<path d="M14.8711 4.97559C16.5646 0.829992 22.4355 0.829991 24.1289 4.97559L24.7871 6.58691C25.7987 9.06288 28.133 10.7459 30.8018 10.9238L32.373 11.0283C36.8932 11.3296 38.7146 17.0065 35.2139 19.8818L34.1611 20.7461C32.0605 22.4715 31.1494 25.2571 31.8232 27.8906L32.1855 29.3096C33.3007 33.6674 28.5437 37.1662 24.7158 34.8037L23.1768 33.8535C20.9232 32.4627 18.0768 32.4627 15.8232 33.8535L14.2842 34.8037C10.4563 37.1662 5.69927 33.6674 6.81445 29.3096L7.17676 27.8906C7.85061 25.2571 6.93951 22.4715 4.83887 20.7461L3.78613 19.8818C0.285405 17.0065 2.1068 11.3296 6.62695 11.0283L8.19824 10.9238C10.867 10.7459 13.2013 9.06288 14.2129 6.58691L14.8711 4.97559Z" fill="#FEBCFE" stroke="black" stroke-width="2"/>
</svg>
