<svg width="25" height="49" viewBox="0 0 25 49" fill="none" xmlns="http://www.w3.org/2000/svg">
<path d="M9.10864 40.9976C7.62693 44.5471 10.8054 47.6505 14.4846 47.9677C23.5371 47.0333 23.9336 43.5857 19.1994 41.2386C14.4653 38.8915 24.5474 35.7601 23.8356 31.873C23.1238 27.9858 11.6208 26.7172 15.8968 23.2023C20.1729 19.6875 25.3532 17.7747 21.7785 12.8048C18.2039 7.83494 7.87738 11.2131 11.0665 8.01698C16.9522 2.11848 15.8641 1.75528 11.9394 1.59009C8.01475 1.42489 -5.41318 8.70473 5.76875 12.6834C16.9507 16.6621 13.0541 16.6524 5.80601 22.9613C-1.44209 29.2701 10.3351 30.8897 12.8308 33.3253C15.3265 35.7609 10.9608 36.5606 9.10864 40.9976Z" fill="#FE991A" stroke="black" stroke-width="2"/>
</svg>
