<svg width="107" height="107" viewBox="0 0 107 107" fill="none" xmlns="http://www.w3.org/2000/svg">
<g filter="url(#filter0_d_256_14)">
<path d="M46.2448 33.5195L30.2399 49.5419C28.7859 50.9986 26.8135 51.8173 24.7568 51.8178C22.7001 51.8183 20.7274 51.0005 19.2727 49.5445C17.818 48.0884 17.0005 46.1133 17 44.0536C16.9995 41.994 17.8161 40.0185 19.2701 38.5617L48.5142 9.27617C49.2343 8.55457 50.0894 7.98213 51.0305 7.59158C51.9716 7.20102 52.9804 7 53.9991 7C55.0178 7 56.0266 7.20102 56.9677 7.59158C57.9088 7.98213 58.7639 8.55457 59.484 9.27617L88.7281 38.5566C89.4484 39.2779 90.0197 40.1342 90.4095 41.0766C90.7994 42.0191 91 43.0291 91 44.0492C91 45.0693 90.7994 46.0794 90.4095 47.0218C90.0197 47.9643 89.4484 48.8206 88.7281 49.5419C88.0078 50.2632 87.1527 50.8354 86.2116 51.2257C85.2705 51.6161 84.2618 51.817 83.2432 51.817C82.2246 51.817 81.2159 51.6161 80.2748 51.2257C79.3337 50.8354 78.4786 50.2632 77.7583 49.5419L61.7534 33.5195V93.2347C61.7534 95.2942 60.9364 97.2693 59.4822 98.7256C58.028 100.182 56.0557 101 53.9991 101C51.9425 101 49.9702 100.182 48.516 98.7256C47.0617 97.2693 46.2448 95.2942 46.2448 93.2347V33.5195Z" fill="#ADDAFB"/>
<path d="M53.999 99.5C55.657 99.5 57.2478 98.8407 58.4209 97.666C59.594 96.4912 60.2529 94.8967 60.2529 93.2344V29.8955L62.8145 32.459L78.8193 48.4814V48.4824C79.4004 49.0643 80.0907 49.525 80.8496 49.8398C81.6086 50.1547 82.4218 50.3174 83.2432 50.3174C84.0645 50.3174 84.8778 50.1547 85.6367 49.8398C86.3957 49.525 87.0859 49.0643 87.667 48.4824C88.2481 47.9005 88.7088 47.2088 89.0234 46.4482C89.338 45.6877 89.5 44.8721 89.5 44.0488C89.4999 43.2257 89.3379 42.4108 89.0234 41.6504C88.7088 40.8898 88.2481 40.1981 87.667 39.6162L58.4229 10.3359H58.4219C57.841 9.75386 57.1515 9.29149 56.3926 8.97656C55.6338 8.6617 54.8203 8.5 53.999 8.5C53.1777 8.50001 52.3643 8.66168 51.6055 8.97656C50.8466 9.2915 50.1571 9.75383 49.5762 10.3359H49.5752L20.3311 39.6221C19.1585 40.7972 18.4996 42.3915 18.5 44.0537C18.5005 45.7161 19.1605 47.3098 20.334 48.4844C21.5074 49.6589 23.0986 50.3178 24.7568 50.3174C26.4148 50.3169 28.0049 49.6573 29.1777 48.4824L29.1787 48.4814L45.1836 32.459L47.7451 29.8955V93.2344C47.7451 94.8967 48.404 96.4912 49.5771 97.666C50.7502 98.8407 52.341 99.5 53.999 99.5Z" stroke="black" stroke-width="3"/>
</g>
<defs>
<filter id="filter0_d_256_14" x="17" y="7" width="76" height="97" filterUnits="userSpaceOnUse" color-interpolation-filters="sRGB">
<feFlood flood-opacity="0" result="BackgroundImageFix"/>
<feColorMatrix in="SourceAlpha" type="matrix" values="0 0 0 0 0 0 0 0 0 0 0 0 0 0 0 0 0 0 127 0" result="hardAlpha"/>
<feOffset dx="2" dy="3"/>
<feComposite in2="hardAlpha" operator="out"/>
<feColorMatrix type="matrix" values="0 0 0 0 0 0 0 0 0 0 0 0 0 0 0 0 0 0 1 0"/>
<feBlend mode="normal" in2="BackgroundImageFix" result="effect1_dropShadow_256_14"/>
<feBlend mode="normal" in="SourceGraphic" in2="effect1_dropShadow_256_14" result="shape"/>
</filter>
</defs>
</svg>
